<?xml version="1.0" encoding="utf-8"?>
<!-- Generator: Adobe Illustrator 16.0.0, SVG Export Plug-In . SVG Version: 6.00 Build 0)  -->
<!DOCTYPE svg PUBLIC "-//W3C//DTD SVG 1.1//EN" "http://www.w3.org/Graphics/SVG/1.1/DTD/svg11.dtd">
<svg version="1.1" id="Layer_1" xmlns="http://www.w3.org/2000/svg" xmlns:xlink="http://www.w3.org/1999/xlink" x="0px" y="0px"
	 width="51px" height="51px" viewBox="0 0 51 51" enable-background="new 0 0 51 51" xml:space="preserve">
<path fill="#FFFFFF" d="M17.942,26.223c4.975,0,9.021-4.217,9.021-9.403c0-5.183-4.045-9.401-9.021-9.401
	c-4.977,0-9.025,4.218-9.025,9.401C8.917,22.006,12.965,26.223,17.942,26.223z M17.942,10.386c3.404,0,6.177,2.888,6.177,6.434
	s-2.773,6.435-6.177,6.435c-3.408,0-6.177-2.889-6.177-6.435S14.534,10.386,17.942,10.386z"/>
<path fill="#FFFFFF" d="M24.724,27.153H11.158c-4.623,0-8.389,3.476-8.389,7.752v6.191c0,0.817,0.641,1.48,1.427,1.48h27.491
	c0.785,0,1.421-0.663,1.421-1.48v-6.191C33.108,30.628,29.348,27.153,24.724,27.153z M30.263,39.612H5.62v-4.707
	c0-2.64,2.486-4.787,5.539-4.787h13.565c3.054,0,5.539,2.147,5.539,4.787V39.612z"/>
<path fill="#FFFFFF" d="M46.896,19.65h-6.284v-6.281c0-0.638-0.518-1.156-1.155-1.156s-1.155,0.518-1.155,1.156v6.281h-6.28
	c-0.638,0-1.156,0.518-1.156,1.156c0,0.636,0.518,1.153,1.156,1.153h6.28v6.283c0,0.637,0.518,1.155,1.155,1.155
	s1.155-0.518,1.155-1.155v-6.283h6.284c0.637,0,1.155-0.518,1.155-1.153C48.05,20.168,47.533,19.65,46.896,19.65z"/>
</svg>
