<?xml version="1.0" encoding="utf-8"?>
<!-- Generator: Adobe Illustrator 16.0.0, SVG Export Plug-In . SVG Version: 6.00 Build 0)  -->
<!DOCTYPE svg PUBLIC "-//W3C//DTD SVG 1.1//EN" "http://www.w3.org/Graphics/SVG/1.1/DTD/svg11.dtd">
<svg version="1.1" id="Layer_1" xmlns="http://www.w3.org/2000/svg" xmlns:xlink="http://www.w3.org/1999/xlink" x="0px" y="0px"
	 width="51px" height="51px" viewBox="0 0 51 51" enable-background="new 0 0 51 51" xml:space="preserve">
<path fill="#958CDC" d="M46.71,12.638c-0.35-1.754-1.783-2.886-3.651-2.888c-2.608-0.003-5.217-0.004-7.827-0.004l-9.73,0.001
	l-9.705-0.001c-2.602,0-5.206,0.001-7.807,0.004c-2.245,0.002-3.756,1.493-3.76,3.71c-0.005,7.538-0.005,15.074,0.002,22.609
	c0.002,2.096,1.523,3.618,3.618,3.62c11.766,0.011,23.532,0.007,35.301,0c2.093,0,3.614-1.522,3.618-3.621
	c0.006-7.55,0.002-15.103-0.003-22.654C46.766,13.145,46.762,12.882,46.71,12.638z M44.276,35.926c0,0.856-0.376,1.238-1.219,1.238
	l-17.555,0.001L7.947,37.164c-0.832,0-1.219-0.379-1.219-1.192c-0.002-3.201-0.002-6.401-0.002-9.604v-2.671
	c0-0.051,0.004-0.103,0.01-0.167l0.026-0.369H44.23l0.028,0.356c0.01,0.113,0.018,0.215,0.018,0.317l0,4.031L44.276,35.926z
	 M44.278,17.072H6.738l-0.004-1.294c-0.004-0.851-0.009-1.73,0.016-2.589c0.017-0.575,0.463-0.918,1.194-0.918l2.222,0l32.756,0
	c1.013,0,1.354,0.338,1.354,1.338c0.003,0.786,0.002,1.573,0.002,2.372L44.278,17.072z"/>
<path fill="#958CDC" d="M38.659,30.829c-0.735-0.002-1.47-0.003-2.204-0.003l-3.459,0.002v-0.004l-4.835-0.001
	c-0.184,0-0.368,0.001-0.55,0.009c-0.236,0.009-0.344,0.113-0.351,0.339c-0.003,0.124,0.027,0.296,0.322,0.347
	c0.064,0.012,0.125,0.013,0.187,0.013l0.141-0.001l9.04,0.003c0.565,0,1.13-0.001,1.695-0.005c0.192-0.001,0.344-0.049,0.426-0.134
	c0.057-0.058,0.083-0.135,0.08-0.234C39.148,31.062,39.143,30.829,38.659,30.829z"/>
</svg>
