<?xml version="1.0" ?><!DOCTYPE svg  PUBLIC '-//W3C//DTD SVG 1.1//EN'  'http://www.w3.org/Graphics/SVG/1.1/DTD/svg11.dtd'><svg enable-background="new -0.709 -14.07 141.732 141.732" height="141.732px" id="Livello_1" version="1.1" viewBox="-0.709 -14.07 141.732 141.732" width="141.732px" xml:space="preserve" xmlns="http://www.w3.org/2000/svg" xmlns:xlink="http://www.w3.org/1999/xlink"><g id="Livello_115"><path d="M86.26,108.111c0,2.985,2.42,5.405,5.402,5.405c2.985,0,5.406-2.42,5.406-5.405c0-2.983-2.421-5.404-5.406-5.404   C88.68,102.705,86.26,105.126,86.26,108.111 M21.394,108.148c0,3.006,2.437,5.441,5.439,5.441s5.443-2.438,5.443-5.441   s-2.438-5.441-5.443-5.441S21.394,105.143,21.394,108.148 M140.314,2.703c0-1.493-1.21-2.703-2.702-2.703h-16.217   c-1.085,0-2.02,0.642-2.447,1.562l-0.01-0.004l-11.956,25.638H0v0.229l22.58,48.424h61.657l10.005,21.454H18.691   c-1.493,0-2.703,1.211-2.703,2.702c0,1.493,1.21,2.703,2.703,2.703h79.797v-0.002c0.383,0,0.772-0.079,1.143-0.251   c1.354-0.633,1.938-2.239,1.31-3.594c-0.011-0.022-0.024-0.046-0.037-0.067l-10.7-22.946h0.062l8.111-17.401   c0.131-0.164,0.248-0.344,0.34-0.543c0.096-0.196,0.156-0.4,0.198-0.605l24.194-51.888h14.505   C139.104,5.406,140.314,4.196,140.314,2.703"/></g><g id="Livello_1_1_"/></svg>