<?xml version="1.0" encoding="utf-8"?>
<!-- Generator: Adobe Illustrator 16.0.0, SVG Export Plug-In . SVG Version: 6.00 Build 0)  -->
<!DOCTYPE svg PUBLIC "-//W3C//DTD SVG 1.1//EN" "http://www.w3.org/Graphics/SVG/1.1/DTD/svg11.dtd">
<svg version="1.1" id="Layer_1" xmlns="http://www.w3.org/2000/svg" xmlns:xlink="http://www.w3.org/1999/xlink" x="0px" y="0px"
	 width="67.5px" height="48px" viewBox="0 0 67.5 48" enable-background="new 0 0 67.5 48" xml:space="preserve">
<g>
	<title>background</title>
	<rect id="canvas_background" x="-1" y="-1" fill="none" width="582" height="402"/>
</g>
<g>
	<g>
		<path fill-rule="evenodd" clip-rule="evenodd" fill="#D1D3D4" d="M35.346,35.542c-2.464,0-4.857,0-7.327,0
			c0.841,1.329,1.144,2.742,0.788,4.253c-0.353,1.5-1.201,2.663-2.527,3.454c-2.118,1.259-4.838,0.925-6.603-0.787
			c-1.429-1.387-2.53-4.123-0.594-7.04c-0.126-0.06-0.246-0.121-0.369-0.173c-1.422-0.608-2.324-1.635-2.603-3.182
			c-1.056-5.848-2.119-11.695-3.178-17.543c-0.454-2.512-0.904-5.026-1.357-7.539c-0.025-0.136-0.066-0.271-0.107-0.441
			c-0.322,0-0.635,0-0.949,0c-2.352,0-4.703,0-7.055,0c-0.142,0-0.285,0.006-0.426-0.006c-0.549-0.046-0.979-0.428-1-0.884
			C1.992,4.66,2.213,4.278,2.922,4.153c0.17-0.03,0.346-0.033,0.518-0.033C6.346,4.119,9.25,4.119,12.154,4.12
			c1.055,0.001,1.387,0.261,1.574,1.291c0.968,5.352,1.93,10.705,2.892,16.056c0.58,3.228,1.152,6.456,1.736,9.682
			c0.197,1.096,0.941,1.71,2.047,1.71c7.64,0.002,15.279-0.004,22.918,0.009c0.919,0.001,1.877-0.563,2.05-1.694
			c0.267-1.76,0.646-3.503,0.975-5.254c0.018-0.091,0.014-0.187,0.024-0.34c-0.197,0-0.381,0-0.564,0
			c-4.039,0-8.08,0.002-12.122-0.005c-0.245-0.001-0.51-0.024-0.737-0.113c-0.509-0.195-0.769-0.7-0.703-1.264
			c0.056-0.495,0.422-0.9,0.935-1c0.214-0.042,0.438-0.044,0.658-0.044c4.136-0.003,8.271-0.008,12.406,0.006
			c0.406,0.001,0.559-0.099,0.63-0.526c0.325-1.943,0.699-3.878,1.057-5.816c0.222-1.208-0.872-2.494-2.231-2.61
			c-0.203-0.017-0.408-0.013-0.614-0.013c-5.888-0.001-11.774-0.001-17.662-0.001c-0.143,0-0.285,0.001-0.426,0
			c-0.87-0.008-1.445-0.496-1.442-1.224c0.001-0.732,0.57-1.214,1.446-1.214c6.124-0.001,12.248-0.007,18.372,0.002
			c3.073,0.004,5.469,2.903,4.91,5.932c-0.865,4.697-1.734,9.394-2.619,14.087c-0.347,1.836-1.445,3.036-3.271,3.636
			c0.973,1.598,1.217,3.283,0.577,5.056c-0.4,1.104-1.106,1.977-2.079,2.628c-1.985,1.325-4.644,1.193-6.488-0.32
			c-1.084-0.888-1.732-2.036-1.936-3.418C34.265,38,34.564,36.733,35.346,35.542z M23.479,35.41
			c-1.708,0.006-3.015,1.326-3.008,3.035c0.007,1.696,1.351,3.033,3.037,3.022c1.688-0.012,3.029-1.369,3.017-3.053
			C26.512,36.711,25.188,35.405,23.479,35.41z M39.968,35.41c-1.708,0.004-3.013,1.319-3.008,3.032
			c0.005,1.697,1.342,3.032,3.031,3.025c1.683-0.008,3.035-1.371,3.024-3.048C43.004,36.719,41.675,35.407,39.968,35.41z"/>
	</g>
	<path fill-rule="evenodd" clip-rule="evenodd" fill="#D1D3D4" d="M59.545,32.898c0.087,0,0.153,0,0.221,0
		c1.734,0,3.469-0.004,5.204,0.002c0.454,0.001,0.792,0.218,0.982,0.63c0.192,0.412,0.13,0.808-0.159,1.156
		c-0.223,0.268-0.521,0.383-0.868,0.383c-1.719-0.002-3.437-0.001-5.154-0.001c-0.067,0-0.134,0-0.226,0c0,0.073,0,0.139,0,0.203
		c0,1.735,0.002,3.47-0.002,5.204c-0.001,0.468-0.22,0.815-0.646,1.007c-0.417,0.186-0.81,0.116-1.154-0.178
		c-0.259-0.221-0.369-0.516-0.369-0.856c0.002-1.718,0.001-3.437,0.001-5.154c0-0.066,0-0.135,0-0.226c-0.072,0-0.139,0-0.204,0
		c-1.739,0-3.48,0.003-5.221-0.002c-0.453-0.002-0.793-0.22-0.983-0.632c-0.19-0.411-0.129-0.807,0.16-1.155
		c0.223-0.269,0.52-0.383,0.868-0.382c1.719,0.002,3.437,0.001,5.153,0.001c0.067,0,0.136,0,0.227,0c0-0.075,0-0.141,0-0.205
		c0-1.729-0.001-3.458,0-5.188c0.001-0.617,0.449-1.096,1.041-1.118c0.624-0.022,1.127,0.461,1.128,1.096
		c0.004,1.276,0.002,2.555,0.002,3.832C59.545,31.835,59.545,32.354,59.545,32.898z"/>
</g>
</svg>
