<?xml version="1.0" encoding="utf-8"?>
<!-- Generator: Adobe Illustrator 16.0.0, SVG Export Plug-In . SVG Version: 6.00 Build 0)  -->
<!DOCTYPE svg PUBLIC "-//W3C//DTD SVG 1.1//EN" "http://www.w3.org/Graphics/SVG/1.1/DTD/svg11.dtd">
<svg version="1.1" id="Layer_1" xmlns="http://www.w3.org/2000/svg" xmlns:xlink="http://www.w3.org/1999/xlink" x="0px" y="0px"
	 width="51px" height="51px" viewBox="0 0 51 51" enable-background="new 0 0 51 51" xml:space="preserve">
<g>
	<path fill="#FFFFFF" d="M36.568,16.714c-0.713-0.236-1.36-0.05-1.99,0.581L21.998,29.91l-5.699-5.704
		c-0.497-0.499-1.032-0.675-1.616-0.54c-0.749,0.17-1.261,0.646-1.48,1.374c-0.203,0.664-0.013,1.275,0.581,1.869
		c2.289,2.29,4.577,4.578,6.869,6.865c0.4,0.399,0.874,0.61,1.37,0.61c0.501,0,0.98-0.214,1.386-0.62
		c0.666-0.663,1.326-1.328,1.987-1.993l2.925-2.944c2.996-3.016,5.99-6.03,8.997-9.037c0.476-0.477,0.656-1.078,0.509-1.693
		C37.674,17.458,37.18,16.915,36.568,16.714z"/>
	<path fill="#FFFFFF" d="M25.501,4.667c-11.488,0-20.834,9.346-20.834,20.834c0,11.487,9.346,20.832,20.834,20.832
		c11.487,0,20.832-9.345,20.832-20.832C46.333,14.013,36.988,4.667,25.501,4.667z M25.501,43.858
		c-10.123,0-18.358-8.235-18.358-18.357c0-10.123,8.235-18.359,18.358-18.359c10.122,0,18.356,8.236,18.356,18.359
		C43.857,35.623,35.623,43.858,25.501,43.858z"/>
</g>
</svg>
