<?xml version="1.0" encoding="utf-8"?>
<!-- Generator: Adobe Illustrator 16.0.0, SVG Export Plug-In . SVG Version: 6.00 Build 0)  -->
<!DOCTYPE svg PUBLIC "-//W3C//DTD SVG 1.1//EN" "http://www.w3.org/Graphics/SVG/1.1/DTD/svg11.dtd">
<svg version="1.1" id="Layer_1" xmlns="http://www.w3.org/2000/svg" xmlns:xlink="http://www.w3.org/1999/xlink" x="0px" y="0px"
	 width="51px" height="51px" viewBox="0 0 51 51" enable-background="new 0 0 51 51" xml:space="preserve">
<g>
	<path fill="#5C5D5F" d="M25.501,4.833c-11.414,0-20.668,9.254-20.668,20.667c0,11.415,9.254,20.668,20.668,20.668
		S46.168,36.915,46.168,25.5C46.168,14.087,36.915,4.833,25.501,4.833z M34.88,35.565c-0.546,0.182-1.075,0.062-1.479-0.339
		c-0.856-0.854-1.713-1.709-2.566-2.566l-4.969-4.968l-7.681,7.678c-0.488,0.49-0.984,0.639-1.536,0.479
		c-0.432-0.127-0.766-0.437-0.916-0.852c-0.148-0.413-0.093-0.86,0.157-1.229c0.106-0.157,0.236-0.29,0.363-0.417
		c2.443-2.445,4.883-4.885,7.327-7.323l0.312-0.313l-7.546-7.571c-0.134-0.135-0.234-0.235-0.325-0.345
		c-0.493-0.595-0.463-1.354,0.077-1.89c0.242-0.237,0.573-0.371,0.935-0.371c0.337,0,0.659,0.117,0.905,0.332
		c0.284,0.246,0.546,0.51,0.838,0.809l6.754,6.778l0.348,0.279l7.453-7.457c0.441-0.445,0.889-0.58,1.406-0.433
		c0.493,0.145,0.866,0.501,0.996,0.959c0.129,0.444,0.006,0.937-0.328,1.311c-0.18,0.203-0.376,0.393-0.573,0.587l-1.785,1.779
		c-1.638,1.64-3.278,3.279-4.919,4.918l-0.314,0.314l0.315,0.313c1.328,1.318,2.651,2.64,3.976,3.959l3.211,3.2
		c0.157,0.155,0.574,0.57,0.516,1.196C35.774,34.97,35.446,35.378,34.88,35.565z"/>
</g>
</svg>
