<?xml version="1.0" encoding="utf-8"?>
<!-- Generator: Adobe Illustrator 16.0.0, SVG Export Plug-In . SVG Version: 6.00 Build 0)  -->
<!DOCTYPE svg PUBLIC "-//W3C//DTD SVG 1.1//EN" "http://www.w3.org/Graphics/SVG/1.1/DTD/svg11.dtd">
<svg version="1.1" id="Layer_1" xmlns="http://www.w3.org/2000/svg" xmlns:xlink="http://www.w3.org/1999/xlink" x="0px" y="0px"
	 width="51px" height="51px" viewBox="0 0 51 51" enable-background="new 0 0 51 51" xml:space="preserve">
<path fill="#300F38" d="M34.352,31.645c-1.94-1.934-3.875-3.862-5.814-5.79l-0.356-0.354l0.355-0.355
	c2.399-2.396,4.801-4.794,7.197-7.193l2.61-2.602c0.29-0.284,0.577-0.565,0.843-0.864c0.524-0.588,0.716-1.359,0.512-2.061
	c-0.205-0.717-0.787-1.277-1.557-1.5c-0.811-0.235-1.521-0.021-2.206,0.667L25.14,22.4l-0.403-0.304l-9.879-9.915
	c-0.395-0.401-0.799-0.814-1.235-1.191c-0.388-0.337-0.893-0.522-1.422-0.522c-0.568,0-1.091,0.208-1.472,0.586
	c-0.847,0.842-0.896,2.033-0.121,2.963c0.134,0.165,0.283,0.314,0.483,0.516l10.935,10.971l-0.353,0.353
	c-3.572,3.566-7.143,7.137-10.717,10.712c-0.18,0.182-0.387,0.391-0.55,0.633c-0.391,0.578-0.48,1.281-0.245,1.931
	c0.236,0.652,0.76,1.139,1.436,1.336c0.857,0.252,1.639,0.021,2.396-0.738l11.129-11.128l7.164,7.165
	c1.25,1.252,2.502,2.504,3.755,3.754c0.627,0.625,1.462,0.816,2.315,0.533c0.888-0.296,1.403-0.938,1.49-1.857
	c0.093-0.984-0.553-1.628-0.797-1.871L34.352,31.645z"/>
</svg>
