<?xml version="1.0" encoding="utf-8"?>
<!-- Generator: Adobe Illustrator 16.0.0, SVG Export Plug-In . SVG Version: 6.00 Build 0)  -->
<!DOCTYPE svg PUBLIC "-//W3C//DTD SVG 1.1//EN" "http://www.w3.org/Graphics/SVG/1.1/DTD/svg11.dtd">
<svg version="1.1" id="Capa_1" xmlns="http://www.w3.org/2000/svg" xmlns:xlink="http://www.w3.org/1999/xlink" x="0px" y="0px"
	 width="512px" height="512px" viewBox="0 0 512 512" enable-background="new 0 0 512 512" xml:space="preserve">
<g>
	<g>
		<g>
			<path fill="#ED1C24" d="M423.445,60.288h-68.361V15.865C355.084,6.923,347.871,0,338.93,0c-0.867,0-1.445,0.29-1.729,0.579
				C336.912,0.29,336.333,0,336.045,0H175.377h-1.15h-1.157c-8.941,0-15.864,6.923-15.864,15.865v44.423H88.555
				c-19.618,0-34.904,15.286-34.904,34.904v25.384v31.729h30.288v325.081c0,19.618,14.997,34.615,34.615,34.615h274.893
				c19.617,0,34.902-14.997,34.902-34.615V152.305h29.999v-31.729V95.192C458.349,75.574,443.057,60.288,423.445,60.288z
				 M188.934,31.729h134.133v28.559H188.934V31.729z M396.332,477.387c0,2.023-0.867,2.885-2.885,2.885H118.554
				c-2.018,0-2.886-0.861-2.886-2.885V152.304h280.664V477.387z M426.332,120.576H85.668V95.191c0-2.019,0.868-3.175,2.886-3.175
				h334.891c2.019,0,2.887,1.156,2.887,3.175V120.576L426.332,120.576z"/>
			<rect x="314.125" y="189.516" fill="#ED1C24" width="32.017" height="262.486"/>
			<rect x="240.28" y="189.516" fill="#ED1C24" width="32.018" height="262.486"/>
			<rect x="166.436" y="189.516" fill="#ED1C24" width="32.018" height="262.486"/>
		</g>
	</g>
</g>
</svg>
