<?xml version="1.0" encoding="utf-8"?>
<!-- Generator: Adobe Illustrator 16.0.0, SVG Export Plug-In . SVG Version: 6.00 Build 0)  -->
<!DOCTYPE svg PUBLIC "-//W3C//DTD SVG 1.1//EN" "http://www.w3.org/Graphics/SVG/1.1/DTD/svg11.dtd">
<svg version="1.1" id="Layer_1" xmlns="http://www.w3.org/2000/svg" xmlns:xlink="http://www.w3.org/1999/xlink" x="0px" y="0px"
	 width="247.772px" height="249.066px" viewBox="0 0 247.772 249.066" enable-background="new 0 0 247.772 249.066"
	 xml:space="preserve">
<g>
	<g>
		<path fill="#58595B" d="M155.631,187.09c0.11-0.266,0.249-0.523,0.409-0.764c0.157-0.24,0.343-0.467,0.552-0.678
			c0.211-0.21,0.438-0.396,0.675-0.549c0.246-0.166,0.505-0.304,0.771-0.412c0.284-0.119,0.561-0.203,0.829-0.254
			c0.293-0.059,0.586-0.088,0.878-0.088c0.291,0,0.582,0.029,0.864,0.087c0.275,0.052,0.555,0.136,0.84,0.254
			c0.267,0.11,0.523,0.249,0.766,0.409c0.24,0.156,0.467,0.342,0.679,0.554c0.209,0.208,0.394,0.435,0.55,0.673
			c0.157,0.232,0.295,0.489,0.413,0.771c0.116,0.285,0.201,0.565,0.251,0.83c0.062,0.299,0.092,0.59,0.092,0.875
			s-0.03,0.576-0.09,0.867c-0.052,0.275-0.137,0.554-0.253,0.834c-0.118,0.288-0.252,0.538-0.407,0.768
			c-0.162,0.246-0.347,0.472-0.556,0.682c-0.21,0.209-0.437,0.395-0.675,0.549c-0.244,0.164-0.501,0.303-0.771,0.414
			c-0.286,0.119-0.565,0.203-0.83,0.252c-0.599,0.123-1.16,0.121-1.743,0.002c-0.274-0.051-0.551-0.135-0.832-0.254
			c-0.271-0.109-0.528-0.248-0.772-0.41c-0.243-0.16-0.47-0.344-0.679-0.553c-0.211-0.211-0.396-0.438-0.549-0.674
			c-0.164-0.246-0.302-0.504-0.412-0.773c-0.111-0.266-0.197-0.546-0.255-0.835c-0.06-0.292-0.09-0.584-0.09-0.868
			c0-0.283,0.03-0.576,0.09-0.867C155.434,187.646,155.52,187.362,155.631,187.09z"/>
		<path fill="#58595B" d="M88.897,175.041l-0.168-0.496l0.051,0.539c-6.734,2.498-11.754,7.436-13.771,13.544l-0.156,0.476
			l-35.212-9.74c-3.313-1.131-6.529-1.705-9.562-1.705c-8.268,0-14.606,4.178-17.848,11.762l-0.053,0.133
			c-5.408,13.871,5.271,23.15,12.433,26.446c0.117,0.054,0.236,0.103,0.361,0.146l76.741,27.479
			c5.105,2.313,10.584,3.486,16.285,3.486c7.174,0,13-1.869,15.837-2.985l0.192-0.081c15.539-6.986,24.168-11.963,29.883-15.258
			c7.419-4.278,10.196-5.879,18.405-6.596l0.569-0.049v2.006c0,2.457,2,4.457,4.457,4.457h14.414v4.824
			c0,2.457,1.998,4.457,4.456,4.457h29.614c2.457,0,4.457-2,4.457-4.457v-62.797c0-2.458-2-4.456-4.457-4.456h-46.381l-0.157-0.231
			c-6.028-8.908-17.254-18.426-30.675-18.426c-18.218,0-27.976,10.069-31.325,14.4l-0.098,0.125L88.897,175.041z M210.668,175.088
			h20.702v53.885h-20.702V175.088z M191.799,175.088h9.957v44.604h-9.957V175.088z M91.833,183.457l39.586-13.436
			c0.981-0.334,1.821-1.002,2.369-1.894c0.303-0.478,7.627-11.698,24.826-11.698c10.008,0,19.364,7.991,24.196,15.912l0.075,0.126
			v40.747l-0.481,0.04c-10.974,0.907-14.728,3.07-22.952,7.813c-5.865,3.383-13.9,8.018-28.99,14.807
			c-2.237,0.87-6.826,2.329-12.426,2.329c-4.495,0-8.799-0.93-12.789-2.764l-0.178-0.077c-0.059-0.024-0.139-0.057-0.206-0.08
			l-76.716-27.472c-1.895-0.903-11.172-5.867-7.689-14.966c1.814-4.18,5.05-6.297,9.615-6.297c2.009,0,4.258,0.42,6.656,1.239
			l37.701,10.444l0.068,0.309c0.088,0.393,0.185,0.787,0.298,1.18c1.399,4.92,4.629,8.999,9.095,11.486
			c4.42,2.463,9.677,3.079,14.565,1.687l44.818-14.2c2.342-0.742,3.644-3.252,2.901-5.594c-0.59-1.861-2.296-3.112-4.246-3.112
			c-0.455,0-0.91,0.071-1.349,0.21l-44.645,14.147c-2.579,0.714-5.369,0.38-7.708-0.924c-2.387-1.329-4.112-3.508-4.86-6.138
			C81.757,191.617,85.232,185.934,91.833,183.457z"/>
	</g>
	<g>
		<g>
			<circle fill="#58595B" cx="81.911" cy="78.365" r="41.401"/>
			<path fill="#58595B" d="M81.912,131.764c-29.444,0-53.399-23.954-53.399-53.398s23.955-53.399,53.399-53.399
				s53.398,23.955,53.398,53.399S111.356,131.764,81.912,131.764z M81.912,29.633c-26.871,0-48.732,21.861-48.732,48.732
				s21.861,48.732,48.732,48.732s48.732-21.861,48.732-48.732S108.783,29.633,81.912,29.633z"/>
			<circle fill="#58595B" cx="81.911" cy="9.153" r="4.345"/>
			<circle fill="#58595B" cx="97.853" cy="11.014" r="4.345"/>
			<circle fill="#58595B" cx="112.936" cy="16.496" r="4.345"/>
			<circle fill="#58595B" cx="126.351" cy="25.305" r="4.345"/>
			<circle fill="#58595B" cx="137.377" cy="36.967" r="4.345"/>
			<circle fill="#58595B" cx="145.42" cy="50.854" r="4.345"/>
			<circle fill="#58595B" cx="150.049" cy="66.221" r="4.345"/>
			<circle fill="#58595B" cx="151.014" cy="82.241" r="4.345"/>
			<circle fill="#58595B" cx="148.264" cy="98.053" r="4.345"/>
			<circle fill="#58595B" cx="141.945" cy="112.806" r="4.345"/>
			<circle fill="#58595B" cx="132.399" cy="125.707" r="4.345"/>
			<circle fill="#58595B" cx="120.138" cy="136.062" r="4.345"/>
			<path fill="#58595B" d="M101.744,144.816c-0.828-2.252,0.325-4.751,2.577-5.578c2.251-0.832,4.749,0.324,5.578,2.576
				c0.83,2.252-0.322,4.748-2.576,5.578C105.072,148.223,102.573,147.068,101.744,144.816z"/>
			<circle fill="#58595B" cx="90.219" cy="147.076" r="4.345"/>
			<path fill="#58595B" d="M69.853,146.656c0.269-2.384,2.419-4.102,4.805-3.832c2.385,0.266,4.1,2.42,3.832,4.805
				c-0.269,2.386-2.419,4.1-4.805,3.831C71.3,151.193,69.585,149.041,69.853,146.656z"/>
			<path fill="#58595B" d="M54.449,142.043c0.81-2.258,3.298-3.434,5.559-2.621c2.258,0.807,3.432,3.298,2.621,5.557
				c-0.81,2.26-3.299,3.432-5.557,2.621C54.812,146.791,53.638,144.302,54.449,142.043z"/>
			<circle fill="#58595B" cx="44.163" cy="136.376" r="4.345"/>
			<path fill="#58595B" d="M28.818,122.978c1.736-1.656,4.488-1.591,6.145,0.148c1.656,1.734,1.59,4.486-0.146,6.142
				c-1.738,1.656-4.488,1.59-6.145-0.146S27.081,124.633,28.818,122.978z"/>
			<circle fill="#58595B" cx="22.164" cy="113.301" r="4.345"/>
			<circle fill="#58595B" cx="15.724" cy="98.601" r="4.346"/>
			<circle fill="#58595B" cx="12.842" cy="82.813" r="4.346"/>
			<circle fill="#58595B" cx="13.675" cy="66.786" r="4.346"/>
			<path fill="#58595B" d="M19.869,47.378c2.212,0.936,3.248,3.487,2.309,5.698c-0.933,2.209-3.486,3.24-5.693,2.307
				c-2.213-0.938-3.244-3.487-2.308-5.697C15.111,47.477,17.661,46.443,19.869,47.378z"/>
			<path fill="#58595B" d="M28.672,33.922c1.938,1.42,2.358,4.141,0.936,6.077c-1.416,1.935-4.139,2.35-6.072,0.933
				c-1.938-1.421-2.353-4.141-0.934-6.075C24.021,32.922,26.742,32.503,28.672,33.922z"/>
			<path fill="#58595B" d="M40.339,22.855c1.559,1.829,1.342,4.573-0.489,6.129c-1.823,1.556-4.568,1.333-6.124-0.491
				c-1.558-1.829-1.335-4.571,0.492-6.127C36.044,20.81,38.789,21.029,40.339,22.855z"/>
			<path fill="#58595B" d="M54.241,14.773c1.098,2.139,0.253,4.759-1.887,5.852c-2.132,1.094-4.752,0.246-5.847-1.888
				c-1.094-2.139-0.246-4.755,1.891-5.849C50.533,11.793,53.153,12.639,54.241,14.773z"/>
			<path fill="#58595B" d="M69.63,10.109c0.576,2.333-0.849,4.69-3.183,5.26c-2.327,0.574-4.682-0.855-5.256-3.184
				c-0.571-2.333,0.856-4.684,3.187-5.256C66.709,6.356,69.064,7.782,69.63,10.109z"/>
		</g>
	</g>
	<g>
		<rect x="210.668" y="175.104" fill="#F1F2F2" width="20.702" height="53.885"/>
	</g>
</g>
</svg>
