<?xml version="1.0" encoding="utf-8"?>
<!-- Generator: Adobe Illustrator 16.0.0, SVG Export Plug-In . SVG Version: 6.00 Build 0)  -->
<!DOCTYPE svg PUBLIC "-//W3C//DTD SVG 1.1//EN" "http://www.w3.org/Graphics/SVG/1.1/DTD/svg11.dtd">
<svg version="1.1" id="Layer_1" xmlns="http://www.w3.org/2000/svg" xmlns:xlink="http://www.w3.org/1999/xlink" x="0px" y="0px"
	 width="51px" height="51px" viewBox="0 0 51 51" enable-background="new 0 0 51 51" xml:space="preserve">
<g>
	<g>
		<path fill="#662D94" d="M20.407,33.534c-3.275,0-6.04,2.771-6.04,6.041c0,3.274,2.765,6.042,6.04,6.042
			c3.224,0,5.934-2.701,6.041-6.042C26.448,36.305,23.682,33.534,20.407,33.534z M20.407,42.723c-1.734,0-3.144-1.414-3.144-3.146
			s1.41-3.145,3.144-3.145c1.651,0,3.062,1.422,3.146,3.145C23.553,41.309,22.142,42.723,20.407,42.723z"/>
		<path fill="#662D94" d="M35.492,33.534c-3.277,0-6.043,2.771-6.043,6.041c0,3.274,2.766,6.042,6.043,6.042
			c3.273,0,6.04-2.768,6.04-6.042C41.532,36.305,38.766,33.534,35.492,33.534z M35.492,42.723c-1.735,0-3.145-1.414-3.145-3.146
			s1.409-3.145,3.145-3.145c1.65,0,3.06,1.422,3.142,3.145C38.634,41.309,37.227,42.723,35.492,42.723z"/>
		<path fill="#662D94" d="M48.211,14.625l-0.066-0.08c-0.164-0.164-0.602-0.542-1.147-0.542H20.118
			c-0.826,0-1.497,0.672-1.497,1.497c0,0.824,0.671,1.496,1.497,1.496h24.743l-5.379,13.443H16.426L10.764,15.06
			c-0.447-1.52-2.195-4.088-5.914-4.088c-0.653,0-1.346,0.08-2.047,0.238c-0.361,0.072-0.673,0.281-0.88,0.589
			c-0.21,0.318-0.289,0.719-0.211,1.096c0.146,0.744,0.852,1.261,1.694,1.093c0.478-0.104,0.933-0.154,1.35-0.154
			c2.597,0,3.127,1.999,3.165,2.137l6.074,16.382c0.146,0.586,0.705,0.982,1.385,0.982h25.042c0.628,0,1.114-0.359,1.277-0.941
			l6.67-16.438C48.532,15.473,48.479,15.025,48.211,14.625z"/>
		<path fill="#662D94" d="M33.268,25.408c0.826,0,1.496-0.671,1.496-1.497c0-0.826-0.67-1.498-1.496-1.498h-8.413
			c-0.825,0-1.496,0.672-1.496,1.498c0,0.826,0.671,1.497,1.496,1.497H33.268z"/>
	</g>
</g>
</svg>
