<?xml version="1.0" encoding="utf-8"?>
<!-- Generator: Adobe Illustrator 16.0.0, SVG Export Plug-In . SVG Version: 6.00 Build 0)  -->
<!DOCTYPE svg PUBLIC "-//W3C//DTD SVG 1.1//EN" "http://www.w3.org/Graphics/SVG/1.1/DTD/svg11.dtd">
<svg version="1.1" id="Layer_1" xmlns="http://www.w3.org/2000/svg" xmlns:xlink="http://www.w3.org/1999/xlink" x="0px" y="0px"
	 width="234.521px" height="102.378px" viewBox="0 0 234.521 102.378" enable-background="new 0 0 234.521 102.378"
	 xml:space="preserve">
<g>
	<path fill="#FFFFFF" d="M33.139,97.343V75.589h7.471c2.66,0,4.851,0.85,6.574,2.547c1.723,1.699,2.585,3.877,2.585,6.537v3.6
		c0,2.67-0.862,4.85-2.585,6.537c-1.723,1.689-3.914,2.533-6.574,2.533H33.139z M37.502,78.951v15.031h2.884
		c1.563,0,2.789-0.527,3.675-1.582s1.33-2.434,1.33-4.135v-3.627c0-1.682-0.443-3.051-1.33-4.105s-2.112-1.582-3.675-1.582H37.502z"
		/>
	<path fill="#FFFFFF" d="M78.357,75.589v14.432c0,2.441-0.807,4.324-2.42,5.648c-1.613,1.324-3.725,1.986-6.335,1.986
		c-2.6,0-4.699-0.662-6.297-1.986s-2.398-3.207-2.398-5.648V75.589h4.377v14.422c0,1.432,0.383,2.504,1.15,3.217
		c0.767,0.711,1.823,1.066,3.167,1.066c1.365,0,2.436-0.354,3.212-1.059c0.777-0.707,1.166-1.783,1.166-3.225V75.589H78.357z"/>
	<path fill="#FFFFFF" d="M96.907,88.259h-2.421v9.084h-4.362V75.589h4.362v8.889h1.897l5.768-8.889h5.333l-7.32,10.129l7.904,11.625
		h-5.319L96.907,88.259z"/>
	<path fill="#FFFFFF" d="M129.514,92.652h-7.635l-1.479,4.691h-4.408l7.485-21.754h4.468l7.455,21.754h-4.407L129.514,92.652z
		 M122.956,89.23h5.482l-2.689-8.547h-0.089L122.956,89.23z"/>
	<path fill="#FFFFFF" d="M157.057,92.652h-7.635l-1.479,4.691h-4.408l7.485-21.754h4.468l7.455,21.754h-4.407L157.057,92.652z
		 M150.499,89.23h5.482l-2.689-8.547h-0.089L150.499,89.23z"/>
	<path fill="#FFFFFF" d="M190.517,97.343h-4.348l-8.785-14.867l-0.09,0.016v14.852h-4.362V75.589h4.362l8.786,14.852l0.089-0.016
		V75.589h4.348V97.343z"/>
</g>
<path fill="#FFFFFF" d="M36.834,5.374c-6.885-0.221-12.862,2.197-17.825,7.187c-4.962,4.99-7.479,11.052-7.479,18.017
	c0,6.691,2.335,12.539,6.933,17.393c4.604,4.852,10.303,7.396,16.938,7.564c0.295,0.01,0.589,0.016,0.88,0.016
	c6.493,0,12.209-2.424,16.989-7.203c4.99-4.986,7.517-10.991,7.517-17.85c0-6.69-2.348-12.555-6.973-17.433
	C49.185,8.187,43.473,5.598,36.834,5.374z M48.404,43.281c-3.32,3.5-7.328,5.275-11.922,5.275c-0.332,0-0.663-0.01-1.012-0.027
	c-4.702-0.16-8.74-2.076-12.002-5.693c-3.269-3.625-4.872-7.912-4.763-12.748c0.053-4.885,1.817-9.116,5.244-12.578
	c3.37-3.402,7.5-5.13,12.274-5.13l0.225,0.003c4.648,0,8.669,1.736,11.956,5.165c3.298,3.438,5.051,7.633,5.211,12.46
	C53.722,35.056,51.968,39.521,48.404,43.281z"/>
<path fill="#FFFFFF" d="M83.833,27.018l-5.449-1.827c-4.055-1.375-5.923-3.585-5.718-6.776c0.052-1.718,0.666-3.106,1.88-4.249
	c1.221-1.148,2.625-1.732,4.273-1.784c1.709,0,3.244,0.489,4.563,1.454c1.289,0.951,1.918,2.159,1.918,3.692v1.534h7.503
	L92.8,17.183c-0.23-3.421-1.805-6.318-4.678-8.616c-2.863-2.289-6.029-3.374-9.281-3.193c-3.797,0.17-7.087,1.603-9.774,4.257
	c-2.703,2.667-3.99,5.918-3.816,9.668c0.282,6.234,3.44,10.344,9.388,12.212l5.517,1.755c4.459,1.435,6.598,4,6.548,7.839
	c-0.051,2.191-0.731,3.982-2.017,5.32c-1.447,1.453-3.453,2.218-5.964,2.268l-0.171,0.004c-1.783,0-3.501-0.797-5.112-2.372
	c-1.663-1.624-2.504-3.198-2.504-4.675v-2.031h-7.42v0.449c0,4.111,1.388,7.713,4.123,10.701c2.733,2.99,6.181,4.648,10.244,4.928
	c0.361,0.023,0.716,0.035,1.069,0.035c3.968,0,7.552-1.479,10.655-4.403c3.387-3.188,4.936-7.021,4.597-11.374
	C93.747,33.57,90.259,29.215,83.833,27.018z"/>
<path fill="#FFFFFF" d="M138.623,39.912c-3.538,5.611-8.944,8.51-16.079,8.617h-0.223c-4.883,0-9.181-1.777-12.767-5.287
	c-3.638-3.563-5.487-7.891-5.487-12.868c0-4.974,1.983-9.344,5.895-12.99c3.751-3.539,8.069-5.297,12.744-5.168
	c7.072,0.163,12.398,3.25,15.827,9.183l0.128,0.224h8.057l-1.186-2.699c-1.791-3.914-4.791-7.202-8.92-9.767
	c-4.255-2.619-8.899-3.949-13.801-3.949l-0.307,0.001c-7.017,0.113-13.13,2.669-18.168,7.598
	c-5.047,4.934-7.551,10.941-7.438,17.858c0.055,6.86,2.628,12.771,7.647,17.566c5.015,4.792,11.057,7.249,17.965,7.304l0.374,0.002
	c10.284,0,18.011-4.632,22.976-13.793l0.962-2.044h-8.066L138.623,39.912z"/>
<path fill="#FFFFFF" d="M174.884,5.374c-6.924-0.273-12.947,2.112-17.914,7.105c-4.961,4.987-7.473,11.049-7.473,18.019
	c0,6.69,2.335,12.539,6.944,17.388c4.614,4.854,10.276,7.427,16.833,7.649c0.275,0.008,0.546,0.012,0.822,0.012
	c6.771,0,12.648-2.592,17.482-7.714v6.63h7.168V30.429c0.224-6.643-2.039-12.486-6.725-17.368
	C187.341,8.184,181.571,5.598,174.884,5.374z M186.368,43.251c-3.56,3.717-7.942,5.482-12.928,5.277
	c-4.65-0.214-8.678-2.154-11.97-5.766c-3.295-3.615-4.911-7.895-4.804-12.717c0.051-4.873,1.816-9.079,5.243-12.505
	c3.425-3.425,7.634-5.159,12.503-5.159c4.646,0,8.684,1.734,11.998,5.153c3.32,3.427,5.057,7.609,5.168,12.435
	C191.685,35.058,189.931,39.529,186.368,43.251z"/>
<path fill="#FFFFFF" d="M222.594,12.778V5.641l-0.43-0.018c-2.553-0.122-5.066,0.486-7.492,1.783
	c-2.148,1.143-3.893,2.693-5.197,4.624V6.528h-6.758v47.935h7.502V25.874c0-2.933,0.505-5.299,1.501-7.031
	c0.63-1.047,1.847-2.314,3.613-3.758c1.729-1.415,4.024-2.186,6.829-2.293L222.594,12.778z"/>
</svg>
