<?xml version="1.0" encoding="utf-8"?>
<!-- Generator: Adobe Illustrator 16.0.0, SVG Export Plug-In . SVG Version: 6.00 Build 0)  -->
<!DOCTYPE svg PUBLIC "-//W3C//DTD SVG 1.1//EN" "http://www.w3.org/Graphics/SVG/1.1/DTD/svg11.dtd">
<svg version="1.1" id="Layer_1" xmlns="http://www.w3.org/2000/svg" xmlns:xlink="http://www.w3.org/1999/xlink" x="0px" y="0px"
	 width="51px" height="51px" viewBox="0 0 51 51" enable-background="new 0 0 51 51" xml:space="preserve">
<path fill="#DFDFDF" d="M48.432,16.542c-0.453-4.662-2.738-8.119-6.791-10.275c-4.15-2.21-8.521-2.145-12.729,0.188
	c-1.421,0.786-2.518,1.872-3.738,3.083c-0.233,0.233-0.466,0.465-0.708,0.696c-0.405,0.395-0.634,0.885-0.643,1.378
	c-0.008,0.464,0.169,0.894,0.509,1.242c0.697,0.723,1.889,0.718,2.675-0.016c0.552-0.516,1.091-1.04,1.622-1.575
	c2.26-2.274,5.051-3.219,8.271-2.805c4.193,0.54,7.668,4.282,7.91,8.519c0.17,2.984-0.826,5.569-2.957,7.683
	c-3.302,3.275-6.592,6.563-9.883,9.849l-6.338,6.308l-0.013-0.008c-1.184-1.184-2.376-2.369-3.568-3.554l-1.28-1.272
	c-3.787-3.762-7.703-7.651-11.513-11.536c-2.788-2.84-3.539-6.332-2.171-10.096c1.229-3.368,4.573-5.838,8.133-6.008
	c1.917-0.081,3.683,0.335,5.434,1.29c1.012,0.553,2.096,0.243,2.595-0.721c0.477-0.906,0.116-1.928-0.879-2.485
	c-2.758-1.547-5.754-2.059-8.772-1.547C7.682,5.875,3.046,11.128,2.814,17.095c-0.147,3.882,1.193,7.265,3.983,10.053
	c3.328,3.322,6.648,6.648,9.967,9.975l8.52,8.534l0.356-0.353l-0.345,0.361l0.353,0.337l5.29-5.278
	c4.578-4.578,9.156-9.156,13.725-13.746C47.559,24.071,48.825,20.559,48.432,16.542z"/>
</svg>
