<?xml version="1.0" encoding="utf-8"?>
<!-- Generator: Adobe Illustrator 16.0.0, SVG Export Plug-In . SVG Version: 6.00 Build 0)  -->
<!DOCTYPE svg PUBLIC "-//W3C//DTD SVG 1.1//EN" "http://www.w3.org/Graphics/SVG/1.1/DTD/svg11.dtd">
<svg version="1.1" id="Layer_1" xmlns="http://www.w3.org/2000/svg" xmlns:xlink="http://www.w3.org/1999/xlink" x="0px" y="0px"
	 width="51px" height="51px" viewBox="0 0 51 51" enable-background="new 0 0 51 51" xml:space="preserve">
<path fill="#FFFFFF" d="M10.023,14.891h31.821c1.557,0,2.824-1.267,2.824-2.824c0-1.558-1.267-2.824-2.824-2.824H10.023
	c-1.558,0-2.824,1.267-2.824,2.824C7.199,13.624,8.465,14.891,10.023,14.891z"/>
<path fill="#FFFFFF" d="M10.023,28.99h31.821c1.557,0,2.824-1.267,2.824-2.824c0-1.559-1.267-2.826-2.824-2.826H10.023
	c-1.558,0-2.824,1.268-2.824,2.826C7.199,27.723,8.465,28.99,10.023,28.99z"/>
<path fill="#FFFFFF" d="M10.023,43.087h31.821c1.557,0,2.824-1.267,2.824-2.824c0-1.558-1.267-2.824-2.824-2.824H10.023
	c-1.558,0-2.824,1.267-2.824,2.824C7.199,41.82,8.465,43.087,10.023,43.087z"/>
</svg>
