<?xml version="1.0" encoding="utf-8"?>
<!-- Generator: Adobe Illustrator 16.0.0, SVG Export Plug-In . SVG Version: 6.00 Build 0)  -->
<!DOCTYPE svg PUBLIC "-//W3C//DTD SVG 1.1//EN" "http://www.w3.org/Graphics/SVG/1.1/DTD/svg11.dtd">
<svg version="1.1" id="Layer_1" xmlns="http://www.w3.org/2000/svg" xmlns:xlink="http://www.w3.org/1999/xlink" x="0px" y="0px"
	 width="157.816px" height="153.818px" viewBox="0 0 157.816 153.818" enable-background="new 0 0 157.816 153.818"
	 xml:space="preserve">
<g>
	<g>
		<path fill="#FFFFFF" d="M22.617,113.744c-4.83-0.156-9.024,1.542-12.508,5.043c-3.48,3.5-5.244,7.752-5.244,12.642
			c0,4.692,1.636,8.799,4.863,12.2c3.229,3.405,7.229,5.192,11.884,5.309c0.207,0.006,0.41,0.009,0.617,0.009
			c4.557,0,8.567-1.699,11.918-5.053c3.499-3.499,5.274-7.712,5.274-12.524c0-4.694-1.645-8.808-4.893-12.229
			C31.282,115.717,27.275,113.901,22.617,113.744z M30.734,140.341c-2.328,2.456-5.143,3.701-8.363,3.701
			c-0.232,0-0.467-0.008-0.709-0.019c-3.299-0.112-6.134-1.457-8.422-3.995c-2.293-2.544-3.418-5.551-3.343-8.945
			c0.038-3.427,1.274-6.395,3.68-8.823c2.366-2.39,5.264-3.602,8.612-3.602h0.159c3.259,0,6.083,1.223,8.388,3.625
			c2.314,2.412,3.543,5.355,3.656,8.744C34.465,134.568,33.235,137.703,30.734,140.341z"/>
		<path fill="#FFFFFF" d="M55.591,128.929l-3.819-1.281c-2.845-0.964-4.158-2.517-4.013-4.754c0.036-1.206,0.467-2.179,1.319-2.981
			c0.857-0.807,1.838-1.215,2.996-1.254c1.201,0,2.276,0.345,3.201,1.023c0.906,0.669,1.347,1.516,1.347,2.591v1.076h5.263v-1.321
			c-0.161-2.396-1.267-4.43-3.282-6.042c-2.011-1.607-4.232-2.366-6.514-2.239c-2.664,0.119-4.97,1.124-6.857,2.985
			c-1.896,1.871-2.797,4.153-2.678,6.783c0.199,4.375,2.416,7.257,6.587,8.57l3.872,1.229c3.126,1.008,4.63,2.808,4.595,5.502
			c-0.037,1.534-0.515,2.793-1.413,3.731c-1.016,1.021-2.425,1.554-4.186,1.592l-0.121,0.002c-1.25,0-2.456-0.561-3.586-1.666
			c-1.167-1.14-1.757-2.241-1.757-3.278v-1.426h-5.205v0.315c0,2.887,0.972,5.414,2.89,7.509c1.92,2.096,4.337,3.262,7.19,3.458
			c0.252,0.017,0.502,0.024,0.75,0.024c2.782,0,5.297-1.039,7.476-3.092c2.377-2.236,3.46-4.922,3.224-7.978
			C62.55,133.527,60.103,130.473,55.591,128.929z"/>
		<path fill="#FFFFFF" d="M94.034,137.976c-2.481,3.938-6.276,5.973-11.279,6.048h-0.157c-3.427,0-6.441-1.248-8.959-3.711
			c-2.555-2.5-3.85-5.537-3.85-9.029c0-3.488,1.391-6.554,4.136-9.11c2.631-2.483,5.662-3.717,8.94-3.629
			c4.963,0.114,8.699,2.284,11.104,6.444l0.092,0.156h5.654l-0.832-1.893c-1.256-2.748-3.361-5.053-6.258-6.853
			c-2.986-1.838-6.245-2.771-9.687-2.771l-0.212,0.003c-4.923,0.077-9.214,1.871-12.749,5.328
			c-3.541,3.464-5.297,7.679-5.218,12.532c0.038,4.813,1.843,8.958,5.364,12.325c3.519,3.361,7.76,5.084,12.604,5.124h0.264
			c7.216,0,12.636-3.249,16.121-9.676l0.675-1.433h-5.661L94.034,137.976z"/>
		<path fill="#FFFFFF" d="M119.475,113.744c-4.857-0.19-9.084,1.482-12.567,4.987c-3.48,3.499-5.246,7.75-5.246,12.64
			c0,4.695,1.64,8.799,4.875,12.202c3.234,3.403,7.208,5.21,11.81,5.366c0.193,0.004,0.383,0.008,0.573,0.008
			c4.755,0,8.879-1.82,12.269-5.412v4.651h5.031v-16.863c0.156-4.661-1.433-8.76-4.719-12.184
			C128.215,115.716,124.167,113.901,119.475,113.744z M127.533,140.319c-2.497,2.608-5.573,3.847-9.069,3.704
			c-3.263-0.152-6.09-1.514-8.399-4.046c-2.313-2.537-3.444-5.539-3.37-8.924c0.036-3.418,1.273-6.368,3.678-8.773
			c2.404-2.401,5.355-3.622,8.773-3.622c3.259,0,6.091,1.217,8.417,3.618c2.33,2.402,3.55,5.338,3.626,8.724
			C131.263,134.57,130.033,137.708,127.533,140.319z"/>
		<path fill="#FFFFFF" d="M152.951,118.939v-5.009l-0.303-0.011c-1.792-0.084-3.554,0.341-5.256,1.252
			c-1.508,0.801-2.731,1.89-3.647,3.244v-3.859h-4.741v33.63h5.262v-20.059c0-2.054,0.356-3.716,1.056-4.93
			c0.442-0.739,1.295-1.624,2.535-2.639c1.211-0.993,2.824-1.534,4.79-1.607L152.951,118.939z"/>
	</g>
	<path fill="#FFFFFF" d="M40.839,42.875v-0.209c0-20.849,16.352-37.924,38.858-37.924c22.503,0,38.649,16.864,38.649,37.715v0.209
		c0,20.851-16.354,37.924-38.856,37.924C56.986,80.59,40.839,63.722,40.839,42.875z M111.485,42.948v-0.282
		c0-17.112-13.305-31.381-32.044-31.381c-18.744,0-31.74,13.976-31.74,31.097v0.284c0,17.114,13.301,31.379,32.042,31.379
		C98.485,74.045,111.485,60.062,111.485,42.948z"/>
	<path fill="#FFFFFF" d="M114.634,80.031c0.408-0.988,0.326-2.124-0.276-3.092c-0.003-0.005-0.005-0.007-0.008-0.013l-0.013-0.019
		c-0.001-0.002-0.003-0.007-0.003-0.007c-1.002-1.598-3.077-2.155-4.833-1.063c-0.052,0.035-0.099,0.077-0.149,0.112
		c-7.406,6.709-17.483,10.808-29.246,10.808c-11.922,0-22.201-4.298-29.728-11.26c-0.086-0.063-0.168-0.13-0.264-0.189
		c-1.896-1.182-4.14-0.579-5.225,1.147l-0.003,0.009l-0.012,0.018c-0.003,0.006-0.006,0.007-0.008,0.013
		c-0.615,0.988-0.722,2.135-0.36,3.161c8.789,8.509,21.035,13.752,35.265,13.752c12.67,0,23.828-4.204,32.372-11.179
		C112.157,82.201,113.872,80.75,114.634,80.031z"/>
</g>
</svg>
