<?xml version="1.0" encoding="utf-8"?>
<!-- Generator: Adobe Illustrator 16.0.0, SVG Export Plug-In . SVG Version: 6.00 Build 0)  -->
<!DOCTYPE svg PUBLIC "-//W3C//DTD SVG 1.1//EN" "http://www.w3.org/Graphics/SVG/1.1/DTD/svg11.dtd">
<svg version="1.1" id="Layer_1" xmlns="http://www.w3.org/2000/svg" xmlns:xlink="http://www.w3.org/1999/xlink" x="0px" y="0px"
	 width="51px" height="51px" viewBox="0 0 51 51" enable-background="new 0 0 51 51" xml:space="preserve">
<path fill="#FFFFFF" d="M21.803,17.708c0-4.695-3.82-8.518-8.517-8.518c-4.696,0-8.517,3.822-8.517,8.518
	c0,4.697,3.821,8.519,8.517,8.519C17.982,26.227,21.803,22.405,21.803,17.708z M6.87,17.708c0-3.539,2.88-6.417,6.417-6.417
	c3.542,0,6.421,2.879,6.421,6.417c0,3.54-2.879,6.419-6.416,6.419C9.75,24.127,6.87,21.248,6.87,17.708z"/>
<path fill="#FFFFFF" d="M38.125,9.387c-0.411,0-0.795,0.18-1.057,0.493L12.276,39.748c-0.234,0.281-0.345,0.637-0.311,1.001
	c0.035,0.364,0.208,0.694,0.488,0.928c0.565,0.467,1.459,0.384,1.928-0.18l24.796-29.866c0.231-0.283,0.343-0.638,0.306-1.001
	c-0.031-0.365-0.205-0.693-0.488-0.928C38.749,9.496,38.446,9.387,38.125,9.387z"/>
<path fill="#FFFFFF" d="M38.195,25.103c-4.698,0-8.519,3.82-8.519,8.518s3.821,8.52,8.519,8.52c4.697,0,8.515-3.822,8.515-8.52
	S42.892,25.103,38.195,25.103z M38.198,40.04c-3.544,0-6.421-2.878-6.421-6.419c0-3.539,2.877-6.417,6.418-6.417
	c3.54,0,6.418,2.879,6.418,6.417C44.613,37.162,41.736,40.04,38.198,40.04z"/>
</svg>
