<?xml version="1.0" encoding="utf-8"?>
<!-- Generator: Adobe Illustrator 16.0.0, SVG Export Plug-In . SVG Version: 6.00 Build 0)  -->
<!DOCTYPE svg PUBLIC "-//W3C//DTD SVG 1.1//EN" "http://www.w3.org/Graphics/SVG/1.1/DTD/svg11.dtd">
<svg version="1.1" id="Layer_1" xmlns="http://www.w3.org/2000/svg" xmlns:xlink="http://www.w3.org/1999/xlink" x="0px" y="0px"
	 width="51px" height="51px" viewBox="0 0 51 51" enable-background="new 0 0 51 51" xml:space="preserve">
<path fill="#414042" d="M45.797,11.546h-1.288l-3.456,14.851H15.652L11.728,7.868c-0.153-0.713-0.846-1.271-1.58-1.271H4.21
	c-0.886,0-1.606,0.721-1.606,1.608c0,0.89,0.721,1.613,1.606,1.613h4.632l5.087,23.986c0.226,1.032,0.908,1.754,1.667,1.754h24.771
	c0.844,0,1.611-0.768,1.611-1.61c0-0.844-0.767-1.613-1.627-1.613H16.903l-0.581-2.717h26.003c0.721-0.007,1.407-0.561,1.562-1.259
	l3.468-14.851c0.1-0.449-0.025-0.935-0.341-1.333C46.698,11.78,46.255,11.55,45.797,11.546z"/>
<path fill="#414042" d="M34.902,37.288c-2.8,0-5.078,2.278-5.078,5.079c0,2.798,2.278,5.074,5.078,5.074
	c2.797,0,5.073-2.276,5.073-5.074C39.975,39.566,37.699,37.288,34.902,37.288z M34.902,44.218c-1.04,0-1.854-0.814-1.854-1.854
	c0-1.042,0.814-1.858,1.854-1.858c1.04,0,1.854,0.816,1.854,1.858C36.756,43.404,35.941,44.218,34.902,44.218z"/>
<path fill="#414042" d="M21.041,37.288c-2.798,0-5.074,2.278-5.074,5.079c0,2.798,2.276,5.074,5.074,5.074
	c2.799,0,5.075-2.276,5.075-5.074C26.116,39.566,23.839,37.288,21.041,37.288z M21.041,44.218c-1.04,0-1.855-0.814-1.855-1.854
	c0-1.042,0.815-1.858,1.855-1.858c1.038,0,1.852,0.816,1.852,1.858C22.892,43.404,22.079,44.218,21.041,44.218z"/>
<path fill="#414042" d="M28.787,16.946l6.605-6.565c0.588-0.58,0.593-1.534,0.017-2.12l-0.032-0.035L35.37,8.223
	c-0.28-0.269-0.646-0.416-1.036-0.416c-0.4,0-0.777,0.156-1.06,0.439l-2.9,2.881V3.998c0-0.881-0.717-1.597-1.598-1.597
	c-0.88,0-1.595,0.716-1.595,1.597v7.103l-2.846-2.849c-0.273-0.232-0.621-0.361-0.978-0.361c-0.44,0-0.856,0.192-1.142,0.525
	c-0.488,0.567-0.488,1.39,0.006,1.963L28.787,16.946z"/>
</svg>
