<?xml version="1.0" encoding="utf-8"?>
<!-- Generator: Adobe Illustrator 16.0.0, SVG Export Plug-In . SVG Version: 6.00 Build 0)  -->
<!DOCTYPE svg PUBLIC "-//W3C//DTD SVG 1.1//EN" "http://www.w3.org/Graphics/SVG/1.1/DTD/svg11.dtd">
<svg version="1.1" id="Layer_1" xmlns="http://www.w3.org/2000/svg" xmlns:xlink="http://www.w3.org/1999/xlink" x="0px" y="0px"
	 width="51px" height="51px" viewBox="0 0 51 51" enable-background="new 0 0 51 51" xml:space="preserve">
<path fill="#FFFFFF" d="M35.4,31.572l0.264-0.385c4.756-6.916,3.863-16.279-2.123-22.264c-3.281-3.28-7.647-5.087-12.295-5.087
	c-4.647,0-9.014,1.807-12.295,5.087c-3.28,3.281-5.087,7.648-5.087,12.296c0,4.648,1.806,9.015,5.087,12.295
	c3.342,3.343,7.749,5.184,12.408,5.184c3.535,0,6.942-1.059,9.854-3.061l0.385-0.265l10.178,10.178
	c0.485,0.485,1.041,0.731,1.651,0.731c1.093,0,2.222-0.81,2.683-1.925c0.227-0.548,0.459-1.615-0.533-2.605L35.4,31.572z
	 M30.398,30.371c-2.435,2.434-5.685,3.775-9.151,3.775c-3.467,0-6.717-1.341-9.151-3.775c-5.045-5.045-5.045-13.255,0-18.302
	c2.435-2.435,5.685-3.775,9.151-3.775c3.466,0,6.716,1.341,9.151,3.775C35.443,17.115,35.443,25.325,30.398,30.371z"/>
</svg>
