<?xml version="1.0" encoding="utf-8"?>
<!-- Generator: Adobe Illustrator 16.0.0, SVG Export Plug-In . SVG Version: 6.00 Build 0)  -->
<!DOCTYPE svg PUBLIC "-//W3C//DTD SVG 1.1//EN" "http://www.w3.org/Graphics/SVG/1.1/DTD/svg11.dtd">
<svg version="1.1" xmlns="http://www.w3.org/2000/svg" xmlns:xlink="http://www.w3.org/1999/xlink" x="0px" y="0px" width="76px"
	 height="76px" viewBox="0 0 76 76" enable-background="new 0 0 76 76" xml:space="preserve">
<g id="Layer_2">
</g>
<g id="Layer_1">
	<g>
		<g>
			<path fill-rule="evenodd" clip-rule="evenodd" fill="#FFFFFF" d="M40.064,48.702c-2.298,0-4.529,0-6.833,0
				c0.784,1.239,1.067,2.559,0.735,3.966c-0.33,1.398-1.121,2.483-2.358,3.22c-1.974,1.174-4.511,0.864-6.156-0.732
				c-1.332-1.295-2.36-3.844-0.554-6.564c-0.117-0.057-0.229-0.113-0.344-0.162c-1.326-0.566-2.167-1.524-2.427-2.968
				c-0.985-5.452-1.976-10.905-2.962-16.358c-0.425-2.342-0.844-4.686-1.268-7.031c-0.022-0.125-0.061-0.25-0.1-0.408
				c-0.299,0-0.592,0-0.884,0c-2.193,0-4.386,0-6.579-0.001c-0.133,0-0.266,0.006-0.397-0.006c-0.512-0.042-0.913-0.399-0.933-0.824
				c-0.043-0.929,0.163-1.283,0.825-1.399c0.158-0.027,0.322-0.029,0.482-0.029c2.709-0.004,5.417-0.004,8.125-0.002
				c0.983,0.002,1.294,0.243,1.468,1.203c0.904,4.99,1.8,9.982,2.697,14.973c0.541,3.01,1.074,6.02,1.618,9.029
				c0.185,1.02,0.878,1.594,1.91,1.594c7.124,0.002,14.248-0.004,21.371,0.007c0.856,0.002,1.75-0.524,1.911-1.579
				c0.25-1.642,0.602-3.268,0.909-4.898c0.015-0.086,0.013-0.176,0.023-0.318c-0.184,0-0.355,0-0.526,0
				c-3.768,0-7.536,0.002-11.303-0.004c-0.231-0.001-0.478-0.022-0.688-0.105c-0.475-0.182-0.716-0.653-0.657-1.18
				c0.053-0.461,0.395-0.838,0.872-0.931c0.199-0.04,0.409-0.042,0.614-0.042c3.856-0.002,7.712-0.008,11.568,0.007
				c0.379,0,0.52-0.093,0.587-0.491c0.303-1.813,0.652-3.617,0.985-5.424c0.208-1.126-0.813-2.324-2.081-2.433
				c-0.19-0.017-0.382-0.013-0.573-0.013c-5.491-0.001-10.98-0.001-16.471-0.001c-0.133,0-0.265,0.001-0.397,0
				c-0.811-0.008-1.347-0.462-1.345-1.142c0.002-0.684,0.532-1.132,1.349-1.132c5.71-0.001,11.421-0.007,17.132,0.002
				c2.865,0.003,5.099,2.707,4.578,5.532c-0.807,4.38-1.617,8.76-2.442,13.136c-0.323,1.713-1.347,2.831-3.05,3.39
				c0.907,1.49,1.134,3.063,0.537,4.715c-0.373,1.03-1.03,1.844-1.938,2.45c-1.852,1.236-4.331,1.114-6.051-0.298
				c-1.009-0.828-1.615-1.898-1.805-3.188C39.056,50.993,39.336,49.813,40.064,48.702z M28.998,48.579
				c-1.592,0.005-2.812,1.236-2.805,2.831c0.007,1.581,1.26,2.827,2.833,2.817c1.574-0.01,2.824-1.275,2.813-2.846
				C31.827,49.792,30.592,48.574,28.998,48.579z M44.375,48.579c-1.594,0.004-2.81,1.23-2.806,2.828
				c0.005,1.584,1.252,2.826,2.829,2.82c1.568-0.008,2.829-1.278,2.818-2.843C47.206,49.799,45.966,48.575,44.375,48.579z"/>
		</g>
		<path fill-rule="evenodd" clip-rule="evenodd" fill="#FFFFFF" d="M62.63,46.237c0.081,0,0.143,0,0.206,0
			c1.618,0,3.235-0.004,4.853,0c0.423,0.002,0.738,0.205,0.916,0.59c0.179,0.384,0.121,0.752-0.148,1.076
			c-0.208,0.252-0.485,0.358-0.81,0.358c-1.602-0.003-3.204-0.002-4.806-0.002c-0.063,0-0.125,0-0.21,0c0,0.068,0,0.13,0,0.19
			c0,1.617,0.001,3.235-0.002,4.852c-0.001,0.437-0.205,0.762-0.604,0.939c-0.388,0.174-0.755,0.109-1.076-0.166
			c-0.242-0.206-0.344-0.48-0.344-0.799c0.002-1.602,0.001-3.203,0.001-4.806c0-0.063,0-0.124,0-0.211c-0.068,0-0.129,0-0.19,0
			c-1.623,0-3.246,0.003-4.869-0.002c-0.423-0.001-0.739-0.204-0.917-0.589c-0.178-0.383-0.12-0.752,0.149-1.076
			c0.208-0.25,0.486-0.357,0.81-0.357c1.603,0.002,3.205,0.002,4.806,0.002c0.063,0,0.126,0,0.211,0c0-0.07,0-0.131,0-0.191
			c0-1.612-0.001-3.225,0-4.836c0-0.577,0.419-1.023,0.97-1.044c0.583-0.021,1.051,0.43,1.053,1.022
			c0.003,1.189,0.001,2.381,0.001,3.572C62.63,45.245,62.63,45.729,62.63,46.237z"/>
	</g>
</g>
</svg>
