<svg xmlns="http://www.w3.org/2000/svg" xmlns:xlink="http://www.w3.org/1999/xlink" version="1.1" width="76" height="76" enable-background="new 0 0 76 76" xml:space="preserve"><rect id="backgroundrect" width="100%" height="100%" x="0" y="0" fill="none" stroke="none"/>


<g class="currentLayer" style=""><title>Layer 1</title><g id="Layer_2">
</g><g id="Layer_1" class="selected" fill="#000000" fill-opacity="1">
	<path fill="#000000" d="M42.281,46.299c-2.561-2.556-5.123-5.107-7.69-7.66l-0.654-0.65l0.654-0.654   c3.174-3.168,6.349-6.34,9.518-9.51l3.452-3.443c0.387-0.38,0.759-0.744,1.104-1.131c0.635-0.711,0.867-1.64,0.622-2.48   c-0.246-0.863-0.95-1.539-1.882-1.809c-0.984-0.285-1.822-0.023-2.663,0.816L30.216,34.316l-0.015-0.016l-3.686,3.686   c2.348,2.334,4.693,4.669,7.036,7.008l6.214,6.191c0.112,0.115,0.284,0.291,0.469,0.518l0.77,0.768   c1.291,1.293,2.582,2.586,3.876,3.875c0.529,0.525,1.17,0.805,1.859,0.805c0.306,0,0.622-0.055,0.94-0.16   c1.068-0.357,1.688-1.13,1.792-2.235c0.113-1.184-0.68-1.968-0.977-2.265L42.281,46.299z" id="svg_1" fill-opacity="1"/>
</g></g></svg>