<?xml version="1.0" encoding="utf-8"?>
<!-- Generator: Adobe Illustrator 16.0.0, SVG Export Plug-In . SVG Version: 6.00 Build 0)  -->
<!DOCTYPE svg PUBLIC "-//W3C//DTD SVG 1.1//EN" "http://www.w3.org/Graphics/SVG/1.1/DTD/svg11.dtd">
<svg version="1.1" xmlns="http://www.w3.org/2000/svg" xmlns:xlink="http://www.w3.org/1999/xlink" x="0px" y="0px" width="76px"
	 height="76px" viewBox="0 0 76 76" enable-background="new 0 0 76 76" xml:space="preserve">
<g id="Layer_2">
</g>
<g id="Layer_1">
	<g>
		<path fill="#FFFFFF" d="M52.359,22.276H23.641c-1.659,0-3,1.341-3,3s1.341,3,3,3h28.719c1.659,0,3-1.341,3-3
			S54.019,22.276,52.359,22.276z"/>
		<path fill="#FFFFFF" d="M52.359,34.999H23.641c-1.659,0-3,1.342-3,3.001s1.341,3,3,3h28.719c1.659,0,3-1.341,3-3
			S54.019,34.999,52.359,34.999z"/>
		<path fill="#FFFFFF" d="M52.359,47.724H23.641c-1.659,0-3,1.34-3,3c0,1.658,1.341,3,3,3h28.719c1.659,0,3-1.342,3-3
			C55.359,49.063,54.019,47.724,52.359,47.724z"/>
	</g>
</g>
</svg>
