<svg xmlns="http://www.w3.org/2000/svg" xmlns:xlink="http://www.w3.org/1999/xlink" version="1.1" width="76" height="76" enable-background="new 0 0 76 76" xml:space="preserve"><rect id="backgroundrect" width="100%" height="100%" x="0" y="0" fill="none" stroke="none"/>


<g class="currentLayer" style=""><title>Layer 1</title><g id="Layer_2">
</g><g id="Layer_1" class="selected" fill-opacity="1" fill="#662d94">
	<g id="svg_1" fill="#662d94">
		<path fill="#662d94" d="M51.583,15.872H24.601c-2.424,0-4.396,1.973-4.396,4.396v35.549c0,2.424,1.972,4.395,4.396,4.395h26.982    c2.423,0,4.396-1.996,4.396-4.449V20.269C55.979,17.845,54.006,15.872,51.583,15.872z M51.583,58.222H24.601    c-1.356,0-2.458-1.103-2.458-2.459V20.269c0-1.378,1.08-2.459,2.458-2.459h26.982c1.377,0,2.458,1.081,2.458,2.459v35.494    C54.041,57.119,52.938,58.222,51.583,58.222z" id="svg_2"/>
		<path fill="#662d94" d="M31.345,35.253h-4.229c-0.989,0-1.826,0.837-1.826,1.826v2.463c0,0.99,0.836,1.826,1.826,1.826h4.229    c1.025,0,1.826-0.803,1.826-1.826v-2.463C33.171,36.09,32.335,35.253,31.345,35.253z M31.234,37.19v2.239h-4.005V37.19H31.234z" id="svg_3"/>
		<path fill="#662d94" d="M31.345,42.106h-4.229c-0.989,0-1.826,0.836-1.826,1.824v2.464c0,0.989,0.836,1.825,1.826,1.825h4.229    c1.025,0,1.826-0.803,1.826-1.825v-2.464C33.171,42.942,32.335,42.106,31.345,42.106z M31.234,44.043v2.239h-4.005v-2.239H31.234z    " id="svg_4"/>
		<path fill="#662d94" d="M31.345,48.96h-4.229c-0.989,0-1.826,0.836-1.826,1.825v2.462c0,0.99,0.836,1.826,1.826,1.826h4.229    c1.025,0,1.826-0.803,1.826-1.826v-2.462C33.171,49.796,32.335,48.96,31.345,48.96z M31.234,50.896v2.238h-4.005v-2.238H31.234z" id="svg_5"/>
		<path fill="#662d94" d="M49.066,48.96h-4.23c-0.988,0-1.825,0.836-1.825,1.825v2.462c0,0.99,0.836,1.826,1.825,1.826h4.23    c1.041,0,1.826-0.786,1.826-1.826v-2.462C50.892,49.796,50.056,48.96,49.066,48.96z M48.955,50.896v2.238h-4.005v-2.238H48.955z" id="svg_6"/>
		<path fill="#662d94" d="M40.18,48.96H35.95c-0.989,0-1.826,0.836-1.826,1.825v2.462c0,0.99,0.837,1.826,1.826,1.826h4.229    c1.041,0,1.825-0.786,1.825-1.826v-2.462C42.005,49.796,41.169,48.96,40.18,48.96z M40.12,50.896v2.238h-4.004v-2.238H40.12z" id="svg_7"/>
		<path fill="#662d94" d="M40.18,42.106H35.95c-0.989,0-1.826,0.836-1.826,1.824v2.464c0,0.989,0.837,1.825,1.826,1.825h4.229    c1.041,0,1.825-0.785,1.825-1.825v-2.464C42.005,42.942,41.169,42.106,40.18,42.106z M40.12,44.043v2.239h-4.004v-2.239H40.12z" id="svg_8"/>
		<path fill="#662d94" d="M49.066,35.253h-4.23c-0.988,0-1.825,0.837-1.825,1.826v2.463c0,0.99,0.836,1.826,1.825,1.826h4.23    c1.041,0,1.826-0.785,1.826-1.826v-2.463C50.892,36.09,50.056,35.253,49.066,35.253z M48.955,37.19v2.239h-4.005V37.19H48.955z" id="svg_9"/>
		<path fill="#662d94" d="M49.066,21.333h-21.95c-0.989,0-1.826,0.836-1.826,1.824v7.336c0,0.99,0.836,1.825,1.826,1.825h21.95    c1.024,0,1.826-0.802,1.826-1.825v-7.336C50.892,22.169,50.056,21.333,49.066,21.333z M48.955,23.271v7.111H27.229v-7.111H48.955z    " id="svg_10"/>
		<path fill="#662d94" d="M40.18,35.253H35.95c-0.989,0-1.826,0.837-1.826,1.826v2.463c0,0.99,0.837,1.826,1.826,1.826h4.229    c1.041,0,1.825-0.785,1.825-1.826v-2.463C42.005,36.09,41.169,35.253,40.18,35.253z M40.12,37.19v2.239h-4.004V37.19H40.12z" id="svg_11"/>
		<path fill="#662d94" d="M49.066,42.106h-4.23c-0.988,0-1.825,0.836-1.825,1.824v2.464c0,0.989,0.836,1.825,1.825,1.825h4.23    c1.041,0,1.826-0.785,1.826-1.825v-2.464C50.892,42.942,50.056,42.106,49.066,42.106z M48.955,44.043v2.239h-4.005v-2.239H48.955z    " id="svg_12"/>
	</g>
</g></g></svg>