<svg xmlns="http://www.w3.org/2000/svg" xmlns:xlink="http://www.w3.org/1999/xlink" version="1.1" width="48" height="48" enable-background="new 14 14 48 48" xml:space="preserve" style=""><rect id="backgroundrect" width="100%" height="100%" x="0" y="0" fill="none" stroke="none"/>


<g class="currentLayer" style=""><title>Layer 1</title><g id="Layer_2">
</g><g id="Layer_1_1_" class="selected" fill-opacity="1" fill="#ffffff">
	<g id="svg_1" fill="#ffffff" fill-opacity="1">
		<polygon fill="#ffffff" points="33.82078409194946,17.83608627319336 14.82578706741333,17.83608627319336 14.815786838531494,17.85208511352539 33.83178949356079,17.85208511352539 " id="svg_2" fill-opacity="1"/>
		<path fill="#ffffff" d="M17.687787616729736,39.678086097717284 c0.5760000000000002,0 1.062,-0.4850000000000001 1.062,-1.063 V28.611086097717283 c0,-0.5760000000000002 -0.4860000000000001,-1.063 -1.062,-1.063 c-0.5760000000000002,0 -1.063,0.4850000000000001 -1.063,1.063 v10.006 C16.625787616729735,39.193086097717284 17.112787616729737,39.678086097717284 17.687787616729736,39.678086097717284 z" id="svg_3" fill-opacity="1"/>
		<path fill="#ffffff" d="M31.058787616729738,39.678086097717284 c0.5760000000000002,0 1.063,-0.4850000000000001 1.063,-1.063 V28.611086097717283 c0,-0.5760000000000002 -0.4870000000000001,-1.063 -1.063,-1.063 s-1.063,0.4850000000000001 -1.063,1.063 v10.006 C29.996787616729733,39.193086097717284 30.483787616729735,39.678086097717284 31.058787616729738,39.678086097717284 z" id="svg_4" fill-opacity="1"/>
		<path fill="#ffffff" d="M24.373787616729736,39.678086097717284 c0.5760000000000002,0 1.063,-0.4850000000000001 1.063,-1.063 V28.611086097717283 c0,-0.5760000000000002 -0.4860000000000001,-1.063 -1.063,-1.063 c-0.5750000000000002,0 -1.063,0.4850000000000001 -1.063,1.063 v10.006 C23.310787616729733,39.193086097717284 23.798787616729733,39.678086097717284 24.373787616729736,39.678086097717284 z" id="svg_5" fill-opacity="1"/>
		<path fill="#ffffff" d="M45.428787616729736,18.461086097717285 c0.020000000000000007,-0.7270000000000002 -0.24800000000000005,-1.412 -0.7520000000000002,-1.932 c-0.514,-0.527 -1.205,-0.8160000000000002 -1.949,-0.8160000000000002 h-7.809 l-9.727,-12.947 c-0.406,-0.542 -1.294,-0.54 -1.7000000000000002,-0.002000000000000001 l-9.728,12.949 h-7.8100000000000005 c-1.5070000000000001,0 -2.733,1.226 -2.733,2.731 v3.343 c0,1.51 1.226,2.7350000000000003 2.733,2.7350000000000003 h0.7620000000000002 l2.729,16.376 c0.3430000000000002,2.133 2.165,3.6820000000000004 4.332,3.6820000000000004 h21.094 c2.167,0 3.989,-1.549 4.331,-3.678 l2.729,-16.38 h0.7640000000000002 c1.508,0 2.732,-1.226 2.732,-2.7350000000000003 v-3.326 H45.428787616729736 zM24.340787616729735,5.174086097717286 l7.904,10.539 H16.436787616729735 L24.340787616729735,5.174086097717286 zM37.12578761672974,40.549086097717286 c-0.18900000000000006,1.104 -1.137,1.905 -2.255,1.905 H13.809787616729736 c-1.118,0 -2.066,-0.803 -2.254,-1.901 l-2.6660000000000004,-16.03 h30.933 L37.12578761672974,40.549086097717286 zM43.33678761672974,21.787086097717285 c0,0.3250000000000001 -0.2850000000000001,0.6100000000000002 -0.6090000000000002,0.6100000000000002 H5.953787616729738 c-0.3240000000000001,0 -0.6080000000000002,-0.2850000000000001 -0.6080000000000002,-0.6100000000000002 v-3.343 c0,-0.3230000000000001 0.2840000000000001,-0.6080000000000002 0.6080000000000002,-0.6080000000000002 H42.724787616729735 c0.3240000000000001,0 0.6090000000000002,0.2850000000000001 0.6090000000000002,0.6080000000000002 v3.343 H43.33678761672974 z" id="svg_6" fill-opacity="1"/>
	</g>
</g></g></svg>