<?xml version="1.0" encoding="utf-8"?>
<!-- Generator: Adobe Illustrator 16.0.0, SVG Export Plug-In . SVG Version: 6.00 Build 0)  -->
<!DOCTYPE svg PUBLIC "-//W3C//DTD SVG 1.1//EN" "http://www.w3.org/Graphics/SVG/1.1/DTD/svg11.dtd">
<svg version="1.1" xmlns="http://www.w3.org/2000/svg" xmlns:xlink="http://www.w3.org/1999/xlink" x="0px" y="0px" width="76px"
	 height="76px" viewBox="0 0 76 76" enable-background="new 0 0 76 76" xml:space="preserve">
<g id="Layer_2">
</g>
<g id="Layer_1">
	<g>
		<path fill-rule="evenodd" clip-rule="evenodd" fill="#FFFFFF" d="M30.129,37.995c0.022-4.364,3.548-7.867,7.922-7.873
			c4.208-0.005,7.825,3.603,7.843,7.823c0.019,4.362-3.514,7.921-7.867,7.921C33.631,45.865,30.105,42.352,30.129,37.995"/>
		<path fill="#FFFFFF" d="M22.695,22.155c0.31,0,0.618,0,1.092,0l0,0h-1.139C22.664,22.155,22.68,22.155,22.695,22.155z"/>
		<path fill="#FFFFFF" d="M60.538,47.763v-2.266c-0.014,0-0.024,0-0.036,0C60.502,46.282,60.533,47.032,60.538,47.763z"/>
		<path fill="#FFFFFF" d="M26.432,22.155c0.431,0,0.829,0,1.226,0c4.28,0,8.558,0,12.837,0H26.432L26.432,22.155z"/>
		<path fill="#FFFFFF" d="M60.502,45.497c0.012,0,0.022,0,0.036,0V27.003c-0.255-2.416-1.634-4.131-3.828-4.658
			c-0.685-0.166-1.417-0.182-2.129-0.182c-5.576-0.004-4.375-0.006-9.949-0.008h-4.138c-4.279,0-8.557,0-12.837,0
			c-0.397,0-0.794,0-1.226,0l0,0h-2.645l0,0c-0.474,0-0.782,0-1.092,0c-0.016,0-0.031,0-0.046,0h-1.283
			c-0.149,0.002-0.296,0-0.443,0.004c-3.421,0.082-5.439,2.093-5.449,5.508c-0.021,6.904-0.01,13.808,0,20.713
			c0.002,0.523,0.036,1.063,0.166,1.568c0.656,2.521,2.562,3.884,5.42,3.886c11.603,0.005,16.429,0.003,28.03,0.001
			c2.179,0,4.357,0.036,6.532-0.023c2.6-0.072,4.613-1.926,4.86-4.507c0.039-0.423,0.053-0.848,0.056-1.28v-0.262
			C60.533,47.032,60.502,46.282,60.502,45.497z M18.145,26.644c0.074-1.032,1.086-1.838,2.237-1.893
			c1.51-0.07,3.027-0.017,4.528-0.017c0.759,2.918-2.233,7.454-6.795,6.804C18.114,29.905,18.029,28.27,18.145,26.644z
			 M24.993,51.367c-1.581,0-3.101,0.045-4.617-0.017c-1.118-0.045-2.182-0.938-2.255-2.016c-0.109-1.596-0.029-3.209-0.029-4.809
			C21.993,44.001,25.382,47.321,24.993,51.367z M48.314,51.31c-9.099,0-11.422,0-20.545,0c-0.416-5.984-3.557-9.264-9.699-9.537
			c0-2.514,0-5.019,0-7.521c6.106-0.11,9.694-4.345,9.64-9.538c9.095,0,11.417,0,20.61,0c0.039,2.618,0.751,4.991,2.702,6.877
			c1.921,1.858,4.269,2.577,6.932,2.606c0,2.54,0,5.042,0,7.618C52.728,41.524,48.23,45.553,48.314,51.31z M57.949,49.144
			c-0.074,1.115-0.954,2.025-2.047,2.095c-1.623,0.106-3.258,0.03-4.891,0.03c-0.45-3.889,3.038-7.307,6.963-6.73
			C57.975,46.065,58.05,47.61,57.949,49.144z M58.002,31.452c-3.702,0.791-7.42-2.805-6.979-6.79c1.575,0,3.095-0.036,4.613,0.013
			c1.274,0.041,2.288,1.029,2.349,2.334C58.059,28.489,58.002,29.978,58.002,31.452z"/>
		<path fill="#FFFFFF" d="M40.495,22.155h4.138C43.254,22.155,41.875,22.155,40.495,22.155z"/>
		<path fill="#FFFFFF" d="M21.366,22.155h1.283C22.221,22.155,21.794,22.153,21.366,22.155z"/>
		<path fill="#FFFFFF" d="M60.538,47.763v0.262C60.538,47.938,60.538,47.849,60.538,47.763z"/>
	</g>
</g>
</svg>
