<svg xmlns="http://www.w3.org/2000/svg" xmlns:xlink="http://www.w3.org/1999/xlink" version="1.1" width="76" height="76" enable-background="new 0 0 76 76" xml:space="preserve"><rect id="backgroundrect" width="100%" height="100%" x="0" y="0" fill="none" stroke="none"/>


<g class="currentLayer" style=""><title>Layer 1</title><g id="Layer_2" class="">
</g><g id="Layer_1" class="selected" fill-opacity="1" fill="#31cfe8">
	<g id="svg_1" fill="#31cfe8">
		<path fill-rule="evenodd" clip-rule="evenodd" fill="#31cfe8" d="M29.341598443031312,37.20759844303131 c0.022000000000000006,-4.364 3.548,-7.867 7.922,-7.873 c4.208,-0.005000000000000001 7.825,3.603 7.843,7.823 c0.019000000000000003,4.362 -3.5140000000000002,7.921 -7.867,7.921 C32.84359844303131,45.07759844303131 29.31759844303131,41.56459844303131 29.341598443031312,37.20759844303131 " id="svg_2"/>
		<path fill="#31cfe8" d="M21.90759844303131,21.367598443031312 c0.31000000000000005,0 0.6180000000000001,0 1.092,0 l0,0 h-1.139 C21.876598443031313,21.367598443031312 21.89259844303131,21.367598443031312 21.90759844303131,21.367598443031312 z" id="svg_3"/>
		<path fill="#31cfe8" d="M59.75059844303131,46.97559844303131 v-2.266 c-0.014000000000000002,0 -0.024000000000000004,0 -0.036000000000000004,0 C59.71459844303131,45.49459844303131 59.74559844303131,46.24459844303131 59.75059844303131,46.97559844303131 z" id="svg_4"/>
		<path fill="#31cfe8" d="M25.64459844303131,21.367598443031312 c0.43100000000000005,0 0.8290000000000001,0 1.226,0 c4.28,0 8.558,0 12.837,0 H25.64459844303131 L25.64459844303131,21.367598443031312 z" id="svg_5"/>
		<path fill="#31cfe8" d="M59.71459844303131,44.70959844303131 c0.012000000000000002,0 0.022000000000000006,0 0.036000000000000004,0 V26.21559844303131 c-0.255,-2.416 -1.6340000000000001,-4.131 -3.8280000000000003,-4.658 c-0.6850000000000002,-0.16600000000000004 -1.417,-0.18200000000000002 -2.129,-0.18200000000000002 c-5.5760000000000005,-0.004000000000000001 -4.375,-0.006000000000000002 -9.949,-0.008000000000000002 h-4.138 c-4.279,0 -8.557,0 -12.837,0 c-0.3970000000000001,0 -0.794,0 -1.226,0 l0,0 h-2.645 l0,0 c-0.47400000000000003,0 -0.782,0 -1.092,0 c-0.016000000000000004,0 -0.031000000000000007,0 -0.04600000000000001,0 h-1.283 c-0.14900000000000002,0.0020000000000000005 -0.29600000000000004,0 -0.44300000000000006,0.004000000000000001 c-3.4210000000000003,0.08200000000000002 -5.439,2.093 -5.449,5.508 c-0.021000000000000005,6.904 -0.010000000000000002,13.808 0,20.713 c0.0020000000000000005,0.523 0.036000000000000004,1.063 0.16600000000000004,1.568 c0.6560000000000001,2.521 2.5620000000000003,3.8840000000000003 5.42,3.886 c11.603,0.005000000000000001 16.429,0.003000000000000001 28.03,0.0010000000000000002 c2.179,0 4.357,0.036000000000000004 6.532,-0.023000000000000007 c2.6,-0.07200000000000001 4.613,-1.9260000000000002 4.86,-4.507 c0.03900000000000001,-0.42300000000000004 0.05300000000000001,-0.8480000000000001 0.05600000000000001,-1.28 v-0.262 C59.74559844303131,46.24459844303131 59.71459844303131,45.49459844303131 59.71459844303131,44.70959844303131 zM17.35759844303131,25.85659844303131 c0.07400000000000001,-1.032 1.086,-1.838 2.237,-1.8930000000000002 c1.51,-0.07 3.027,-0.017000000000000005 4.5280000000000005,-0.017000000000000005 c0.7590000000000001,2.918 -2.233,7.454 -6.795,6.804 C17.326598443031312,29.117598443031312 17.24159844303131,27.48259844303131 17.35759844303131,25.85659844303131 zM24.20559844303131,50.57959844303131 c-1.581,0 -3.101,0.04500000000000001 -4.617,-0.017000000000000005 c-1.118,-0.04500000000000001 -2.182,-0.9380000000000001 -2.255,-2.016 c-0.10900000000000001,-1.596 -0.029000000000000005,-3.209 -0.029000000000000005,-4.809 C21.20559844303131,43.21359844303131 24.594598443031312,46.53359844303131 24.20559844303131,50.57959844303131 zM47.52659844303131,50.52259844303131 c-9.099,0 -11.422,0 -20.545,0 c-0.41600000000000004,-5.984 -3.557,-9.264 -9.699,-9.537 c0,-2.5140000000000002 0,-5.019 0,-7.521 c6.106,-0.11000000000000001 9.694,-4.345 9.64,-9.538 c9.095,0 11.417,0 20.61,0 c0.03900000000000001,2.6180000000000003 0.7510000000000001,4.991 2.702,6.877 c1.921,1.858 4.269,2.577 6.932,2.606 c0,2.54 0,5.042 0,7.618 C51.94059844303131,40.73659844303131 47.44259844303131,44.76559844303131 47.52659844303131,50.52259844303131 zM57.16159844303131,48.35659844303131 c-0.07400000000000001,1.115 -0.9540000000000001,2.025 -2.047,2.095 c-1.6230000000000002,0.10600000000000001 -3.258,0.030000000000000006 -4.891,0.030000000000000006 c-0.45,-3.8890000000000002 3.038,-7.307 6.963,-6.73 C57.18759844303131,45.27759844303131 57.26259844303131,46.82259844303131 57.16159844303131,48.35659844303131 zM57.21459844303131,30.664598443031313 c-3.702,0.791 -7.42,-2.805 -6.979,-6.79 c1.5750000000000002,0 3.095,-0.036000000000000004 4.613,0.013000000000000003 c1.274,0.04100000000000001 2.2880000000000003,1.029 2.349,2.334 C57.27159844303131,27.701598443031312 57.21459844303131,29.190598443031313 57.21459844303131,30.664598443031313 z" id="svg_6"/>
		<path fill="#31cfe8" d="M39.70759844303131,21.367598443031312 h4.138 C42.46659844303131,21.367598443031312 41.08759844303131,21.367598443031312 39.70759844303131,21.367598443031312 z" id="svg_7"/>
		<path fill="#31cfe8" d="M20.57859844303131,21.367598443031312 h1.283 C21.43359844303131,21.367598443031312 21.00659844303131,21.36559844303131 20.57859844303131,21.367598443031312 z" id="svg_8"/>
		<path fill="#31cfe8" d="M59.75059844303131,46.97559844303131 v0.262 C59.75059844303131,47.15059844303131 59.75059844303131,47.06159844303131 59.75059844303131,46.97559844303131 z" id="svg_9"/>
	</g>
</g></g></svg>