<svg xmlns="http://www.w3.org/2000/svg" xmlns:xlink="http://www.w3.org/1999/xlink" version="1.1" width="76" height="76" enable-background="new 0 0 76 76" xml:space="preserve"><rect id="backgroundrect" width="100%" height="100%" x="0" y="0" fill="none" stroke="none"/>


<g class="currentLayer" style=""><title>Layer 1</title><g id="Layer_2">
</g><g id="Layer_1" class="selected" fill-opacity="1" fill="#5c5d5f">
	<path fill="#5c5d5f" d="M52.284,48.776l-4.821-4.803c-1.985-1.981-3.973-3.962-5.965-5.941c2.463-2.459,4.926-4.919,7.385-7.38   l2.677-2.671c0.303-0.295,0.605-0.592,0.886-0.907c0.655-0.734,0.894-1.706,0.635-2.598c-0.259-0.905-0.988-1.61-1.948-1.89   c-1.008-0.292-1.932-0.025-2.77,0.815l-4.104,4.105c-2.203,2.205-4.406,4.408-6.609,6.616c-0.016,0.016-0.032,0.034-0.05,0.052   L27.465,24.005c-0.409-0.418-0.833-0.849-1.294-1.248c-1.054-0.916-2.695-0.873-3.665,0.088c-1.054,1.047-1.116,2.584-0.159,3.733   c0.145,0.177,0.307,0.341,0.527,0.563l10.856,10.892c-3.665,3.661-7.327,7.321-10.995,10.992c-0.202,0.203-0.433,0.437-0.627,0.725   c-0.495,0.732-0.605,1.622-0.309,2.441c0.298,0.826,0.96,1.44,1.813,1.689c0.271,0.079,0.539,0.118,0.801,0.118   c0.78,0,1.487-0.327,2.162-1.003l11.055-11.057l6.987,6.989c1.282,1.285,2.566,2.57,3.853,3.853   c0.788,0.783,1.83,1.025,2.899,0.671c1.102-0.368,1.77-1.2,1.877-2.345C53.369,49.855,52.553,49.042,52.284,48.776z" id="svg_1"/>
</g></g></svg>