<?xml version="1.0" encoding="utf-8"?>
<!-- Generator: Adobe Illustrator 16.0.0, SVG Export Plug-In . SVG Version: 6.00 Build 0)  -->
<!DOCTYPE svg PUBLIC "-//W3C//DTD SVG 1.1//EN" "http://www.w3.org/Graphics/SVG/1.1/DTD/svg11.dtd">
<svg version="1.1" id="Layer_1" xmlns="http://www.w3.org/2000/svg" xmlns:xlink="http://www.w3.org/1999/xlink" x="0px" y="0px"
	 width="51px" height="51px" viewBox="0 0 51 51" enable-background="new 0 0 51 51" xml:space="preserve">
<g transform="translate(0,-952.36218)">
	<path fill="#DFDFDF" d="M25.563,955.85c-1.3,0-2.274,0.688-3.134,1.27c-0.859,0.578-1.647,1.091-2.104,1.215
		c-0.457,0.122-1.396,0.072-2.429,0c-1.033-0.072-2.228-0.18-3.354,0.471c-1.125,0.652-1.63,1.734-2.085,2.666
		c-0.455,0.932-0.881,1.768-1.214,2.103c-0.337,0.333-1.171,0.762-2.104,1.215c-0.933,0.455-2.017,0.959-2.666,2.084
		c-0.651,1.127-0.563,2.321-0.488,3.355c0.071,1.034,0.139,1.973,0.015,2.431c-0.122,0.456-0.635,1.243-1.214,2.103
		c-0.581,0.862-1.27,1.837-1.27,3.135c0,1.301,0.688,2.277,1.27,3.138c0.579,0.86,1.092,1.646,1.214,2.104
		c0.124,0.458,0.056,1.396-0.015,2.429c-0.075,1.035-0.164,2.229,0.488,3.357c0.649,1.124,1.733,1.629,2.666,2.082
		c0.932,0.453,1.767,0.884,2.104,1.216c0.333,0.335,0.759,1.172,1.214,2.105c0.455,0.931,0.96,2.014,2.085,2.665
		c1.126,0.65,2.321,0.563,3.354,0.486c1.033-0.07,1.973-0.138,2.429-0.015c0.457,0.122,1.245,0.634,2.104,1.214
		c0.86,0.578,1.837,1.27,3.134,1.27c1.303,0,2.278-0.691,3.137-1.27c0.862-0.58,1.647-1.092,2.104-1.214
		c0.459-0.123,1.397-0.056,2.431,0.015c1.033,0.077,2.229,0.164,3.354-0.486c1.126-0.651,1.632-1.734,2.086-2.665
		c0.452-0.934,0.881-1.771,1.213-2.105c0.336-0.332,1.17-0.763,2.102-1.216c0.933-0.453,2.018-0.958,2.666-2.082
		c0.651-1.128,0.547-2.322,0.474-3.357c-0.073-1.032-0.124-1.971,0-2.429c0.121-0.457,0.635-1.243,1.213-2.104
		c0.581-0.861,1.271-1.837,1.271-3.138c0-1.298-0.689-2.273-1.271-3.135c-0.578-0.859-1.092-1.647-1.213-2.103
		c-0.124-0.458-0.073-1.397,0-2.431c0.073-1.035,0.178-2.228-0.474-3.355c-0.648-1.125-1.733-1.629-2.666-2.084
		c-0.932-0.453-1.766-0.881-2.102-1.215c-0.332-0.335-0.761-1.171-1.213-2.103c-0.454-0.932-0.96-2.014-2.086-2.666
		c-1.126-0.651-2.321-0.543-3.354-0.471c-1.033,0.072-1.972,0.122-2.431,0c-0.457-0.124-1.242-0.637-2.104-1.215
		C27.841,956.539,26.866,955.85,25.563,955.85L25.563,955.85z M25.563,958.172c0.357,0,1.052,0.333,1.851,0.872
		c0.799,0.537,1.651,1.233,2.793,1.541c1.143,0.305,2.229,0.121,3.192,0.053c0.959-0.066,1.723,0.006,2.029,0.181
		c0.307,0.179,0.738,0.804,1.161,1.669c0.423,0.863,0.813,1.901,1.647,2.735c0.837,0.838,1.875,1.231,2.738,1.65
		c0.868,0.423,1.49,0.854,1.671,1.162c0.176,0.306,0.248,1.071,0.181,2.031c-0.065,0.959-0.251,2.05,0.054,3.192
		c0.308,1.14,1.002,1.994,1.544,2.79c0.536,0.798,0.871,1.498,0.871,1.849c0,0.355-0.335,1.055-0.871,1.851
		c-0.542,0.797-1.236,1.651-1.544,2.792c-0.305,1.144-0.119,2.233-0.054,3.19c0.067,0.961-0.007,1.725-0.181,2.032
		c-0.181,0.308-0.803,0.739-1.671,1.162c-0.863,0.42-1.901,0.814-2.738,1.649c-0.834,0.833-1.225,1.871-1.647,2.738
		c-0.423,0.861-0.854,1.49-1.161,1.668c-0.307,0.175-1.07,0.248-2.029,0.179c-0.963-0.067-2.05-0.251-3.192,0.055
		c-1.142,0.308-1.994,1.004-2.793,1.542c-0.799,0.54-1.494,0.872-1.851,0.872c-0.351,0-1.049-0.332-1.846-0.872
		c-0.801-0.538-1.652-1.234-2.795-1.542c-1.141-0.306-2.232-0.122-3.191-0.055c-0.96,0.069-1.724-0.006-2.031-0.179
		c-0.307-0.178-0.738-0.807-1.16-1.668c-0.422-0.867-0.815-1.905-1.652-2.738c-0.834-0.835-1.872-1.229-2.736-1.649
		c-0.864-0.423-1.492-0.854-1.668-1.162s-0.249-1.071-0.183-2.032c0.068-0.957,0.253-2.047-0.054-3.19
		c-0.304-1.141-1.002-1.995-1.541-2.792c-0.537-0.796-0.872-1.496-0.872-1.851c0-0.351,0.335-1.05,0.872-1.849
		c0.539-0.796,1.237-1.65,1.541-2.79c0.307-1.142,0.122-2.233,0.054-3.192c-0.066-0.96,0.007-1.725,0.183-2.031
		c0.176-0.308,0.804-0.739,1.668-1.162c0.865-0.419,1.902-0.813,2.736-1.65c0.836-0.834,1.23-1.872,1.652-2.735
		c0.421-0.866,0.853-1.491,1.16-1.669c0.307-0.175,1.07-0.247,2.031-0.181c0.958,0.068,2.05,0.251,3.191-0.053
		c1.143-0.307,1.994-1.003,2.795-1.541C24.514,958.505,25.212,958.172,25.563,958.172z M34.704,967.437
		c-0.257,0.037-0.491,0.157-0.672,0.344L15.466,986.35c-0.466,0.441-0.485,1.176-0.044,1.64c0.44,0.465,1.178,0.484,1.642,0.042
		c0.012-0.009,0.023-0.022,0.03-0.031l18.571-18.569c0.466-0.44,0.49-1.174,0.05-1.639
		C35.455,967.516,35.079,967.384,34.704,967.437z M19.763,967.454c-2.551,0-4.643,2.094-4.643,4.644
		c0,2.551,2.092,4.642,4.643,4.642s4.641-2.091,4.641-4.642C24.404,969.548,22.314,967.454,19.763,967.454z M19.763,969.777
		c1.296,0,2.322,1.026,2.322,2.321c0,1.295-1.026,2.32-2.322,2.32c-1.295,0-2.321-1.025-2.321-2.32
		C17.441,970.803,18.467,969.777,19.763,969.777z M31.367,979.059c-2.55,0-4.642,2.093-4.642,4.644c0,2.55,2.092,4.642,4.642,4.642
		c2.551,0,4.642-2.092,4.642-4.642C36.009,981.152,33.918,979.059,31.367,979.059z M31.367,981.38c1.298,0,2.32,1.025,2.32,2.323
		c0,1.294-1.022,2.32-2.32,2.32c-1.297,0-2.319-1.026-2.319-2.32C29.048,982.405,30.07,981.38,31.367,981.38z"/>
</g>
</svg>
