<?xml version="1.0" encoding="utf-8"?>
<!-- Generator: Adobe Illustrator 16.0.0, SVG Export Plug-In . SVG Version: 6.00 Build 0)  -->
<!DOCTYPE svg PUBLIC "-//W3C//DTD SVG 1.1//EN" "http://www.w3.org/Graphics/SVG/1.1/DTD/svg11.dtd">
<svg version="1.1" id="Layer_1" xmlns="http://www.w3.org/2000/svg" xmlns:xlink="http://www.w3.org/1999/xlink" x="0px" y="0px"
	 width="174.482px" height="76px" viewBox="0 0 174.482 76" enable-background="new 0 0 174.482 76" xml:space="preserve">
<g id="Layer_2">
</g>
<g id="Layer_1_1_">
	<g>
		<g>
			<path fill="#662D94" d="M30.683,20.706c-4.893-0.156-9.139,1.563-12.664,5.107c-3.525,3.543-5.312,7.852-5.312,12.798
				c0,4.753,1.656,8.908,4.924,12.354c3.271,3.449,7.318,5.259,12.033,5.377c0.209,0.009,0.417,0.009,0.627,0.009
				c4.612,0,8.672-1.72,12.066-5.113c3.542-3.543,5.339-7.812,5.339-12.684c0-4.751-1.665-8.917-4.952-12.383
				C39.457,22.706,35.397,20.866,30.683,20.706z M38.9,47.639c-2.355,2.484-5.206,3.744-8.469,3.744
				c-0.234,0-0.472-0.006-0.719-0.019c-3.341-0.114-6.21-1.476-8.526-4.046c-2.322-2.573-3.461-5.62-3.385-9.055
				c0.037-3.47,1.29-6.474,3.728-8.935c2.396-2.419,5.328-3.645,8.719-3.645h0.162c3.301,0,6.157,1.236,8.491,3.669
				c2.342,2.443,3.59,5.425,3.702,8.854C42.68,41.795,41.433,44.966,38.9,47.639z"/>
			<path fill="#662D94" d="M64.069,36.082L60.2,34.786c-2.88-0.978-4.208-2.548-4.061-4.816c0.034-1.217,0.472-2.205,1.335-3.016
				c0.866-0.816,1.862-1.232,3.035-1.27c1.215,0,2.304,0.35,3.238,1.035c0.917,0.676,1.365,1.533,1.365,2.623v1.092h5.328
				l-0.001-1.34c-0.164-2.429-1.28-4.484-3.323-6.119c-2.035-1.627-4.285-2.396-6.594-2.268c-2.697,0.12-5.034,1.139-6.942,3.023
				c-1.922,1.895-2.833,4.205-2.712,6.869c0.199,4.428,2.443,7.347,6.667,8.674l3.922,1.246c3.166,1.021,4.688,2.844,4.65,5.569
				c-0.036,1.558-0.521,2.83-1.432,3.778c-1.027,1.033-2.452,1.576-4.237,1.611l-0.121,0.004c-1.267,0-2.487-0.569-3.631-1.688
				c-1.183-1.152-1.779-2.27-1.779-3.32v-1.442h-5.271v0.319c0,2.922,0.986,5.48,2.928,7.603c1.943,2.124,4.393,3.305,7.28,3.501
				c0.255,0.02,0.507,0.025,0.758,0.025c2.818,0,5.364-1.055,7.569-3.129c2.407-2.268,3.507-4.985,3.268-8.08
				C71.116,40.736,68.637,37.647,64.069,36.082z"/>
			<path fill="#662D94" d="M102.996,45.244c-2.514,3.984-6.355,6.042-11.421,6.12l-0.16,0.002c-3.471,0-6.521-1.265-9.07-3.759
				c-2.588-2.53-3.896-5.606-3.896-9.142c0-3.533,1.41-6.636,4.186-9.226c2.666-2.516,5.733-3.766,9.055-3.674
				c5.025,0.115,8.809,2.311,11.243,6.523l0.092,0.159h5.726l-0.843-1.919c-1.273-2.781-3.404-5.115-6.338-6.938
				c-3.023-1.86-6.323-2.804-9.806-2.804h-0.217c-4.984,0.079-9.329,1.896-12.907,5.397c-3.585,3.504-5.362,7.774-5.285,12.686
				c0.04,4.875,1.868,9.074,5.436,12.48c3.562,3.404,7.854,5.149,12.76,5.188l0.27,0.002c7.305,0,12.793-3.291,16.32-9.801
				l0.684-1.451h-5.731L102.996,45.244z"/>
			<path fill="#662D94" d="M128.754,20.706c-4.917-0.192-9.196,1.5-12.725,5.049c-3.525,3.542-5.312,7.848-5.312,12.8
				c0,4.754,1.659,8.909,4.937,12.354c3.274,3.446,7.298,5.272,11.957,5.434c0.196,0.005,0.388,0.009,0.581,0.009
				c4.813,0,8.989-1.843,12.423-5.48v4.711h5.094V38.505c0.158-4.717-1.452-8.867-4.778-12.337
				C137.604,22.704,133.506,20.866,128.754,20.706z M136.912,47.617c-2.525,2.639-5.641,3.893-9.182,3.749
				c-3.307-0.152-6.166-1.531-8.504-4.099c-2.34-2.567-3.49-5.605-3.413-9.035c0.037-3.46,1.29-6.447,3.724-8.883
				c2.436-2.433,5.424-3.666,8.884-3.666c3.302,0,6.167,1.231,8.523,3.662c2.356,2.436,3.595,5.406,3.671,8.834
				C140.69,41.795,139.443,44.973,136.912,47.617z"/>
			<path fill="#662D94" d="M162.648,25.966v-5.069l-0.307-0.012c-1.813-0.087-3.599,0.345-5.321,1.268
				c-1.524,0.812-2.765,1.913-3.691,3.284v-3.909h-4.802v34.054h5.329v-20.31c0-2.085,0.36-3.764,1.067-4.994
				c0.446-0.746,1.311-1.645,2.565-2.672c1.229-1.006,2.859-1.553,4.851-1.629L162.648,25.966z"/>
		</g>
	</g>
</g>
</svg>
