<svg xmlns="http://www.w3.org/2000/svg" xmlns:xlink="http://www.w3.org/1999/xlink" version="1.1" width="76" height="76" enable-background="new 0 0 76 76" xml:space="preserve"><rect id="backgroundrect" width="100%" height="100%" x="0" y="0" fill="none" stroke="none"/>


<g class="currentLayer" style=""><title>Layer 1</title><g id="Layer_2">
</g><g id="Layer_1" class="selected" fill-opacity="1" fill="#00aeef">
	<g id="svg_1" fill="#00aeef">
		<path fill="#00aeef" d="M45.5,37.188c1.726-1.86,2.705-4.306,2.705-6.91c0-5.627-4.578-10.204-10.204-10.204    c-5.627,0-10.205,4.577-10.205,10.204c0,2.602,0.977,5.042,2.697,6.901c-5.937,1.206-10.419,6.466-10.419,12.753v5.993h35.853    v-5.993C55.926,43.66,51.463,38.41,45.5,37.188z M38,23.637c3.661,0,6.641,2.979,6.641,6.642S41.662,36.92,38,36.92    c-3.662,0-6.643-2.979-6.643-6.642S34.338,23.637,38,23.637z M33.086,40.483h9.826c5.211,0,9.449,4.239,9.449,9.449v2.432H23.637    v-2.432C23.637,44.723,27.875,40.483,33.086,40.483z" id="svg_2"/>
	</g>
</g></g></svg>