<svg xmlns="http://www.w3.org/2000/svg" xmlns:xlink="http://www.w3.org/1999/xlink" version="1.1" width="76" height="76" enable-background="new 0 0 76 76" xml:space="preserve" style=""><rect id="backgroundrect" width="100%" height="100%" x="0" y="0" fill="none" stroke="none"/>


<g class="currentLayer" style=""><title>Layer 1</title><g id="Layer_2">
</g><g id="Layer_1" class="selected" fill-opacity="1" fill="#d1d3d4">
	<path fill-rule="evenodd" clip-rule="evenodd" fill="#d1d3d4" d="M44.344,40.395c0.416,0.408,0.843,0.82,1.262,1.24   c3.117,3.113,6.236,6.229,9.349,9.348c1.136,1.139,1.214,2.826,0.197,3.941c-1.12,1.227-2.915,1.252-4.134,0.047   c-1.058-1.043-2.103-2.102-3.154-3.152c-2.412-2.412-4.825-4.824-7.237-7.236c-0.083-0.08-0.167-0.156-0.25-0.232   c-6.36,4.006-14.071,1.811-17.783-3.428c-3.724-5.254-3.169-12.328,1.352-16.904c4.44-4.494,11.599-5.141,16.74-1.621   C46.063,26.08,48.44,33.896,44.344,40.395z M42.698,33.283c0.021-5.184-4.179-9.402-9.396-9.438   c-5.18-0.031-9.405,4.164-9.446,9.383c-0.041,5.193,4.192,9.447,9.412,9.459C38.454,42.701,42.675,38.49,42.698,33.283z" id="svg_1"/>
</g></g></svg>