<svg xmlns="http://www.w3.org/2000/svg" xmlns:xlink="http://www.w3.org/1999/xlink" version="1.1" width="76" height="76" enable-background="new 0 0 76 76" xml:space="preserve"><rect id="backgroundrect" width="100%" height="100%" x="0" y="0" fill="none" stroke="none"/>


<g class="currentLayer" style=""><title>Layer 1</title><g id="Layer_2">
</g><g id="Layer_1" class="selected" fill-opacity="1" fill="#ffbc29">
	<g id="svg_1" fill="#ffbc29">
		<g id="svg_2" fill="#ffbc29">
			<path fill="#ffbc29" d="M60.592,57.02440155696869 c0.7060000000000001,0 1.2810000000000001,-0.5740000000000001 1.2810000000000001,-1.2810000000000001 v-15 c0,-0.7070000000000001 -0.5750000000000001,-1.2810000000000001 -1.2810000000000001,-1.2810000000000001 h-8.427 c-0.7080000000000001,0 -1.283,0.5740000000000001 -1.283,1.2810000000000001 v0.08200000000000002 h-1.445 c-0.6700000000000002,0 -1.22,0.518 -1.278,1.172 c-0.8490000000000001,-0.09600000000000003 -1.645,-0.14500000000000002 -2.415,-0.14500000000000002 c-3.395,0 -6.092,0.9390000000000001 -10.175,2.363 c-1.48,0.516 -3.3200000000000003,1.158 -5.586,1.8850000000000002 l-0.22600000000000003,0.08800000000000002 c-1.936,0.8630000000000001 -2.37,2.754 -1.947,4.162 c0.39100000000000007,1.3090000000000002 1.605,2.6270000000000002 3.435,2.6270000000000002 c0.23,0 0.466,-0.021000000000000005 0.7030000000000001,-0.06600000000000002 c1.295,-0.24000000000000002 9.402,-1.342 9.479,-1.354 c0.3390000000000001,-0.04500000000000001 0.6400000000000001,-0.22100000000000003 0.8480000000000001,-0.49400000000000005 c0.20800000000000002,-0.271 0.29500000000000004,-0.6070000000000001 0.251,-0.9450000000000001 c-0.09300000000000003,-0.6890000000000002 -0.7270000000000001,-1.195 -1.444,-1.1 L40.9,49.04240155696869 c-3.048,0.41800000000000004 -8.329,1.145 -9.425,1.352 c-0.6750000000000002,0.12300000000000001 -1.085,-0.36300000000000004 -1.209,-0.777 c-0.15000000000000002,-0.502 0.037000000000000005,-0.8710000000000001 0.503,-1.076 c2.21,-0.7070000000000001 4.031,-1.34 5.6450000000000005,-1.9 c4.985,-1.7400000000000002 7.484,-2.5940000000000003 11.74,-2.061 v10.133 c-2.773,0.5920000000000001 -11.836,2.479 -15.082,2.479 c-2.64,0 -10.924,-5.891 -15.476,-9.557 c-0.38400000000000006,-0.38900000000000007 -1.224,-1.375 -0.774,-2.156 c0.258,-0.44500000000000006 0.7400000000000001,-0.7210000000000001 1.256,-0.7210000000000001 c0.252,0 0.501,0.06600000000000002 0.784,0.22700000000000004 c0.031000000000000007,0.016000000000000004 4.032,1.99 7.313,3.371 c0.6340000000000001,0.266 1.412,-0.05100000000000001 1.6780000000000002,-0.6840000000000002 c0.273,-0.6520000000000001 -0.03200000000000001,-1.4020000000000001 -0.6840000000000002,-1.6800000000000002 c-2.791,-1.174 -6.151,-2.805 -7.115,-3.277 c-0.902,-0.512 -2.005,-0.6460000000000001 -2.982,-0.39300000000000007 l-0.30700000000000005,0.09400000000000003 c-0.8990000000000001,0.31300000000000006 -1.621,0.973 -2.1630000000000003,1.7810000000000001 c-0.47400000000000003,0.7110000000000001 -0.47400000000000003,1.8610000000000002 -0.47400000000000003,1.8610000000000002 c0.031000000000000007,1.141 0.6030000000000001,2.332 1.6780000000000002,3.406 l0.09800000000000003,0.09000000000000002 c0.028000000000000004,0.023000000000000007 3.15,2.539 6.726,5.016 c5.109,3.535 8.427,5.182 10.442,5.182 c3.359,0 11.693,-1.697 15.107,-2.426 c0.12000000000000001,0.5860000000000001 0.6380000000000001,1.027 1.2570000000000001,1.027 h1.445 v0.11700000000000002 c0,0.7070000000000001 0.5760000000000001,1.283 1.283,1.283 h8.427 c0.7060000000000001,0 1.2810000000000001,-0.5760000000000001 1.2810000000000001,-1.283 s-0.5750000000000001,-1.279 -1.2810000000000001,-1.279 h-7.146 V42.026401556968686 h5.864 v13.717 C59.309,56.450401556968686 59.884,57.02440155696869 60.592,57.02440155696869 zM50.878,43.39140155696869 v12.402 h-0.16300000000000003 V43.39140155696869 H50.878 z" id="svg_3"/>
			<g id="svg_4" fill="#ffbc29">
				<path fill="#ffbc29" d="M30.951,40.68440155696869 c-6.303,0 -11.432,-5.129 -11.432,-11.432 s5.128,-11.432 11.432,-11.432 s11.432,5.129 11.432,11.432 S37.254,40.68440155696869 30.951,40.68440155696869 zM30.951,20.32940155696869 c-4.92,0 -8.922,4.004 -8.922,8.924 c0,4.918 4.002,8.922 8.922,8.922 c4.9190000000000005,0 8.922,-4.004 8.922,-8.922 C39.874,24.33340155696869 35.87,20.32940155696869 30.951,20.32940155696869 z" id="svg_5"/>
				<path fill="#ffbc29" d="M30.951,33.99140155696869 c-2.614,0 -4.74,-2.127 -4.74,-4.738 c0,-2.615 2.126,-4.74 4.74,-4.74 c2.613,0 4.74,2.125 4.74,4.74 C35.691,31.86440155696869 33.564,33.99140155696869 30.951,33.99140155696869 z" id="svg_6"/>
			</g>
		</g>
	</g>
</g></g></svg>