<?xml version="1.0" encoding="utf-8"?>
<!-- Generator: Adobe Illustrator 16.0.0, SVG Export Plug-In . SVG Version: 6.00 Build 0)  -->
<!DOCTYPE svg PUBLIC "-//W3C//DTD SVG 1.1//EN" "http://www.w3.org/Graphics/SVG/1.1/DTD/svg11.dtd">
<svg version="1.1" xmlns="http://www.w3.org/2000/svg" xmlns:xlink="http://www.w3.org/1999/xlink" x="0px" y="0px" width="76px"
	 height="76px" viewBox="0 0 76 76" enable-background="new 0 0 76 76" xml:space="preserve">
<g id="Layer_2">
</g>
<g id="Layer_1">
	<g>
		<g>
			<path fill="#FFFFFF" d="M60.592,56.237c0.706,0,1.281-0.574,1.281-1.281v-15c0-0.707-0.575-1.281-1.281-1.281h-8.427
				c-0.708,0-1.283,0.574-1.283,1.281v0.082h-1.445c-0.67,0-1.22,0.518-1.278,1.172c-0.849-0.096-1.645-0.145-2.415-0.145
				c-3.395,0-6.092,0.939-10.175,2.363c-1.48,0.516-3.32,1.158-5.586,1.885l-0.226,0.088c-1.936,0.863-2.37,2.754-1.947,4.162
				c0.391,1.309,1.605,2.627,3.435,2.627c0.23,0,0.466-0.021,0.703-0.066c1.295-0.24,9.402-1.342,9.479-1.354
				c0.339-0.045,0.64-0.221,0.848-0.494c0.208-0.271,0.295-0.607,0.251-0.945c-0.093-0.689-0.727-1.195-1.444-1.1L40.9,48.255
				c-3.048,0.418-8.329,1.145-9.425,1.352c-0.675,0.123-1.085-0.363-1.209-0.777c-0.15-0.502,0.037-0.871,0.503-1.076
				c2.21-0.707,4.031-1.34,5.645-1.9c4.985-1.74,7.484-2.594,11.74-2.061v10.133c-2.773,0.592-11.836,2.479-15.082,2.479
				c-2.64,0-10.924-5.891-15.476-9.557c-0.384-0.389-1.224-1.375-0.774-2.156c0.258-0.445,0.74-0.721,1.256-0.721
				c0.252,0,0.501,0.066,0.784,0.227c0.031,0.016,4.032,1.99,7.313,3.371c0.634,0.266,1.412-0.051,1.678-0.684
				c0.273-0.652-0.032-1.402-0.684-1.68c-2.791-1.174-6.151-2.805-7.115-3.277c-0.902-0.512-2.005-0.646-2.982-0.393l-0.307,0.094
				c-0.899,0.313-1.621,0.973-2.163,1.781c-0.474,0.711-0.474,1.861-0.474,1.861c0.031,1.141,0.603,2.332,1.678,3.406l0.098,0.09
				c0.028,0.023,3.15,2.539,6.726,5.016c5.109,3.535,8.427,5.182,10.442,5.182c3.359,0,11.693-1.697,15.107-2.426
				c0.12,0.586,0.638,1.027,1.257,1.027h1.445v0.117c0,0.707,0.576,1.283,1.283,1.283h8.427c0.706,0,1.281-0.576,1.281-1.283
				s-0.575-1.279-1.281-1.279h-7.146V41.239h5.864v13.717C59.309,55.663,59.884,56.237,60.592,56.237z M50.878,42.604v12.402h-0.163
				V42.604H50.878z"/>
			<g>
				<path fill="#FFFFFF" d="M30.951,39.897c-6.303,0-11.432-5.129-11.432-11.432s5.128-11.432,11.432-11.432
					s11.432,5.129,11.432,11.432S37.254,39.897,30.951,39.897z M30.951,19.542c-4.92,0-8.922,4.004-8.922,8.924
					c0,4.918,4.002,8.922,8.922,8.922c4.919,0,8.922-4.004,8.922-8.922C39.874,23.546,35.87,19.542,30.951,19.542z"/>
				<path fill="#FFFFFF" d="M30.951,33.204c-2.614,0-4.74-2.127-4.74-4.738c0-2.615,2.126-4.74,4.74-4.74
					c2.613,0,4.74,2.125,4.74,4.74C35.691,31.077,33.564,33.204,30.951,33.204z"/>
			</g>
		</g>
	</g>
</g>
</svg>
