<?xml version="1.0" encoding="utf-8"?>
<!-- Generator: Adobe Illustrator 16.0.0, SVG Export Plug-In . SVG Version: 6.00 Build 0)  -->
<!DOCTYPE svg PUBLIC "-//W3C//DTD SVG 1.1//EN" "http://www.w3.org/Graphics/SVG/1.1/DTD/svg11.dtd">
<svg version="1.1" id="Layer_1" xmlns="http://www.w3.org/2000/svg" xmlns:xlink="http://www.w3.org/1999/xlink" x="0px" y="0px"
	 width="51px" height="51px" viewBox="0 0 51 51" enable-background="new 0 0 51 51" xml:space="preserve">
<path fill="#FFFFFF" d="M10.625,27.865c1.448,0.003,12.53,0.003,12.53,0.003s-0.008,10.905,0.01,12.604
	c0.014,1.428,0.968,2.43,2.319,2.43c0.092,0,0.186-0.004,0.287-0.012c1.282-0.128,2.079-1.118,2.083-2.583
	c0.004-2.889,0.004-12.438,0.004-12.438s12.154,0,12.787-0.021c1.278-0.043,2.235-1.041,2.227-2.326
	c-0.011-1.265-0.918-2.216-2.208-2.314c-0.178-0.015-0.365-0.018-0.547-0.018l-0.312,0.001l-11.723-0.005
	c-0.076,0-0.15-0.001-0.224-0.001c0,0,0.009-12.116-0.026-12.791C27.764,9.079,26.81,8.16,25.438,8.16h-0.002
	c-1.255,0.03-2.193,0.948-2.271,2.239c-0.014,0.189-0.01,12.792-0.01,12.792s-11.934-0.001-12.709,0.017
	c-0.737,0.017-1.378,0.315-1.81,0.848c-0.425,0.519-0.595,1.222-0.462,1.926C8.386,27.137,9.323,27.859,10.625,27.865z"/>
</svg>
