<?xml version="1.0" encoding="utf-8"?>
<!-- Generator: Adobe Illustrator 16.0.0, SVG Export Plug-In . SVG Version: 6.00 Build 0)  -->
<!DOCTYPE svg PUBLIC "-//W3C//DTD SVG 1.1//EN" "http://www.w3.org/Graphics/SVG/1.1/DTD/svg11.dtd">
<svg version="1.1" id="Layer_1" xmlns="http://www.w3.org/2000/svg" xmlns:xlink="http://www.w3.org/1999/xlink" x="0px" y="0px"
	 width="245.833px" height="186.5px" viewBox="0 0 245.833 186.5" enable-background="new 0 0 245.833 186.5" xml:space="preserve">
<path fill="#FFFFFF" d="M227.167,84.103H195.89V52.824c0-3.033-2.468-5.5-5.5-5.5s-5.5,2.467-5.5,5.5v31.279h-31.278
	c-3.033,0-5.5,2.467-5.5,5.5s2.467,5.5,5.5,5.5h31.278v31.276c0,3.033,2.468,5.5,5.5,5.5s5.5-2.467,5.5-5.5V95.103h31.277
	c3.033,0,5.5-2.467,5.5-5.5S230.2,84.103,227.167,84.103z"/>
<path fill="#FFFFFF" d="M162.678,130.684c-8.772-16.048-23.858-27.406-41.638-31.443c12.232-9.045,19.465-23.275,19.465-38.519
	c0-26.419-21.494-47.913-47.913-47.913S44.679,34.303,44.679,60.722c0,15.249,7.24,29.483,19.479,38.528
	c-28.816,6.546-49.491,32.266-49.491,62.025v6.416h0v2.602c0,2.969,2.464,5.375,5.505,5.375c3.041,0,5.505-2.406,5.505-5.375v-4.752
	c0-0.07-0.008-0.137-0.011-0.207v-4.059c0-29.03,23.598-52.646,52.604-52.646l14.32,0.006c0.045,0,0.09-0.002,0.116-0.006h14.197
	c19.232,0,36.906,10.475,46.123,27.336c4.24,7.736,6.481,16.488,6.481,25.31v4.078c-0.002,0.063-0.01,0.125-0.01,0.188v4.752
	c0,2.969,2.464,5.375,5.505,5.375c3.04,0,5.505-2.406,5.505-5.375v-2.602v-2.15v-4.266
	C170.509,150.613,167.801,140.035,162.678,130.684z M92.708,97.629h-0.229c-20.292-0.062-36.8-16.618-36.8-36.907
	c0-20.354,16.559-36.913,36.913-36.913s36.913,16.559,36.913,36.913C129.505,81.011,112.996,97.568,92.708,97.629z"/>
</svg>
