<?xml version="1.0" encoding="utf-8"?>
<!-- Generator: Adobe Illustrator 16.0.0, SVG Export Plug-In . SVG Version: 6.00 Build 0)  -->
<!DOCTYPE svg PUBLIC "-//W3C//DTD SVG 1.1//EN" "http://www.w3.org/Graphics/SVG/1.1/DTD/svg11.dtd">
<svg version="1.1" id="Layer_1" xmlns="http://www.w3.org/2000/svg" xmlns:xlink="http://www.w3.org/1999/xlink" x="0px" y="0px"
	 width="51px" height="51px" viewBox="0 0 51 51" enable-background="new 0 0 51 51" xml:space="preserve">
<path fill="#D1D3D4" d="M36.828,18.299c-0.758-0.912-1.854-1.436-3.008-1.438c-1.985-0.003-3.969-0.004-5.953-0.004l-7.633,0.002
	c-0.788,0-1.317,0.461-1.319,1.147c-0.002,0.673,0.539,1.148,1.315,1.155l13.528,0c0.095,0,0.188,0.001,0.282,0.009
	c0.442,0.038,0.872,0.279,1.151,0.646c0.233,0.306,0.333,0.667,0.274,0.989l-0.204,1.094c-0.2,1.069-0.399,2.138-0.579,3.21
	c-0.03,0.18-0.033,0.193-0.218,0.18c-1.61-0.005-3.219-0.006-4.829-0.006l-4.346,0.002c-0.181,0-0.358,0.003-0.535,0.038
	c-0.479,0.094-0.837,0.478-0.892,0.957c-0.063,0.544,0.204,1.014,0.679,1.196c0.173,0.067,0.381,0.1,0.636,0.1
	c2.025,0.003,4.049,0.004,6.074,0.004h3.034c-0.071,0.378-0.146,0.756-0.221,1.134c-0.174,0.887-0.354,1.804-0.493,2.715
	c-0.11,0.719-0.715,1.04-1.268,1.04c-3.206-0.005-6.412-0.006-9.618-0.006h-2.359h-4.971c-0.704,0-1.143-0.366-1.268-1.059
	c-0.268-1.479-0.532-2.958-0.796-4.437l-0.667-3.722c-0.651-3.624-1.303-7.25-1.958-10.873c-0.159-0.877-0.502-1.159-1.411-1.16
	H6.89l-4.076,0.001c-0.143,0-0.287,0.003-0.426,0.028c-0.806,0.141-0.89,0.741-0.861,1.368c0.021,0.463,0.438,0.847,0.969,0.891
	c0.06,0.005,0.12,0.006,0.18,0.006h5.88c0.011,0.041,0.02,0.08,0.027,0.119l3.353,18.547c0.215,1.188,0.912,2.042,2.073,2.538
	c0.003,0.001,0.007,0.003,0.01,0.004c-1.21,2.047-0.579,4.109,0.626,5.279c0.807,0.783,1.874,1.215,3.003,1.215
	c0.769,0,1.523-0.207,2.181-0.598c1.038-0.619,1.706-1.53,1.984-2.711c0.237-1.008,0.104-1.999-0.394-2.952h4.547
	c-0.439,0.824-0.594,1.699-0.46,2.608c0.16,1.085,0.67,1.988,1.52,2.685c1.411,1.158,3.574,1.266,5.095,0.251
	c0.775-0.519,1.325-1.214,1.634-2.066c0.451-1.248,0.351-2.488-0.296-3.689c1.274-0.505,2.047-1.437,2.299-2.775
	c0.655-3.472,1.297-6.944,1.938-10.418C37.907,20.399,37.59,19.216,36.828,18.299z M19.063,38.239
	c-0.373,0.378-0.874,0.588-1.426,0.591c-1.106,0-1.977-0.872-1.981-1.985c-0.002-0.545,0.199-1.049,0.565-1.419
	c0.366-0.369,0.867-0.572,1.41-0.574l0.007-0.249v0.249c1.129,0,1.986,0.849,1.994,1.974C19.637,37.36,19.434,37.862,19.063,38.239z
	 M31.252,38.239c-0.375,0.379-0.876,0.589-1.421,0.591c-1.108,0-1.979-0.873-1.982-1.987c-0.001-0.546,0.199-1.05,0.564-1.418
	c0.366-0.369,0.867-0.572,1.411-0.573l0.004-0.25v0.25c1.131,0,1.991,0.85,1.998,1.977C31.831,37.36,31.626,37.861,31.252,38.239z"
	/>
<path fill="#D1D3D4" d="M49.264,33.106c-0.181-0.393-0.52-0.61-0.952-0.612l-1.748-0.002l-2.015,0.001l0-1.748l-0.001-2.007
	c-0.001-0.594-0.464-1.06-1.093-1.06c0,0-0.001,0-0.001,0c-0.575,0.021-1.009,0.484-1.01,1.077l0,3.737l-3.728-0.001
	c-0.349,0-0.629,0.125-0.835,0.373c-0.277,0.336-0.331,0.733-0.152,1.119c0.182,0.393,0.52,0.61,0.953,0.611l1.775,0.002l1.987,0
	l0,0.93l-0.001,2.799c0,0.342,0.121,0.619,0.36,0.824c0.208,0.177,0.437,0.267,0.68,0.267c0.146,0,0.292-0.033,0.438-0.098
	c0.403-0.181,0.625-0.526,0.626-0.972c0.002-0.951,0.002-1.901,0.001-2.851l0-0.899l1.823,0l1.907,0.001
	c0.348,0,0.628-0.125,0.833-0.374C49.39,33.89,49.444,33.493,49.264,33.106z"/>
</svg>
