<?xml version="1.0" encoding="utf-8"?>
<!-- Generator: Adobe Illustrator 16.0.0, SVG Export Plug-In . SVG Version: 6.00 Build 0)  -->
<!DOCTYPE svg PUBLIC "-//W3C//DTD SVG 1.1//EN" "http://www.w3.org/Graphics/SVG/1.1/DTD/svg11.dtd">
<svg version="1.1" id="Layer_1" xmlns="http://www.w3.org/2000/svg" xmlns:xlink="http://www.w3.org/1999/xlink" x="0px" y="0px"
	 width="51px" height="51px" viewBox="0 0 51 51" enable-background="new 0 0 51 51" xml:space="preserve">
<path fill="#414042" d="M20.497,26.563c-0.171-0.17-0.357-0.313-0.557-0.45c0.264-0.21,0.475-0.385,0.682-0.591
	c4.144-4.126,8.281-8.258,12.407-12.4c0.637-0.641,0.969-1.403,0.933-2.149c-0.03-0.603-0.308-1.148-0.778-1.536
	c-1.08-0.89-2.318-0.779-3.471,0.374l-4.715,4.704c-3.216,3.209-6.434,6.419-9.644,9.638c-1.326,1.328-1.323,2.57,0.005,3.9
	c3.682,3.694,7.375,7.378,11.069,11.059l3.204,3.196c0.449,0.446,1.146,1.042,2.043,1.042c0.539,0,1.055-0.213,1.535-0.633
	c0.466-0.407,0.723-0.935,0.741-1.523c0.025-0.748-0.336-1.519-1.049-2.232C28.775,34.82,24.64,30.686,20.497,26.563z"/>
</svg>
