<svg version="1.1" xmlns="http://www.w3.org/2000/svg" xmlns:xlink="http://www.w3.org/1999/xlink" width="51" height="51" enable-background="new 0 0 51 51" xml:space="preserve" style=""><rect id="backgroundrect" width="100%" height="100%" x="0" y="0" fill="none" stroke="none"/>








<g class="currentLayer" style=""><title>Layer 1</title><path fill-rule="evenodd" clip-rule="evenodd" fill="#ffffff" d="M17.912,24.783c0.023-4.208,3.422-7.583,7.639-7.588  c4.055-0.005,7.541,3.474,7.56,7.54c0.02,4.205-3.388,7.634-7.583,7.634C21.29,32.369,17.888,28.982,17.912,24.783" id="svg_1" class="" fill-opacity="1"/><path fill="#ffffff" d="M10.746,9.514c0.3,0,0.597,0,1.053,0l0,0h-1.098C10.719,9.514,10.731,9.514,10.746,9.514z" id="svg_2" class="" fill-opacity="1"/><path fill="#ffffff" d="M47.226,34.197v-2.185c-0.013,0-0.023,0-0.036,0C47.19,32.771,47.219,33.493,47.226,34.197z" id="svg_3" class="" fill-opacity="1"/><path fill="#ffffff" d="M14.348,9.514c0.416,0,0.8,0,1.182,0c4.126,0,8.251,0,12.374,0H14.348L14.348,9.514z" id="svg_4" class="" fill-opacity="1"/><path fill="#ffffff" d="M47.19,32.012c0.013,0,0.023,0,0.036,0V14.189c-0.247-2.332-1.575-3.983-3.69-4.493  c-0.661-0.159-1.366-0.174-2.052-0.174c-5.373-0.005-4.218-0.005-9.591-0.008h-3.988c-4.123,0-8.248,0-12.374,0  c-0.382,0-0.766,0-1.182,0l0,0h-2.549l0,0c-0.456,0-0.753,0-1.053,0c-0.015,0-0.027,0-0.044,0H9.469  c-0.146,0.003-0.287,0-0.431,0.003c-3.297,0.081-5.242,2.018-5.252,5.311c-0.02,6.656-0.009,13.311,0,19.967  c0.002,0.506,0.036,1.024,0.162,1.512c0.632,2.428,2.468,3.742,5.224,3.745c11.183,0.005,15.836,0.003,27.019,0.001  c2.099,0,4.199,0.035,6.295-0.023c2.506-0.069,4.446-1.856,4.685-4.344c0.038-0.41,0.051-0.815,0.055-1.234v-0.253  C47.219,33.493,47.19,32.771,47.19,32.012z M6.361,13.841c0.072-0.996,1.047-1.771,2.156-1.825C9.973,11.949,11.434,12,12.882,12  c0.73,2.814-2.155,7.188-6.551,6.559C6.332,16.986,6.25,15.409,6.361,13.841z M12.963,37.672c-1.522,0-2.99,0.042-4.451-0.017  c-1.079-0.042-2.103-0.902-2.174-1.94c-0.106-1.54-0.027-3.096-0.027-4.636C10.071,30.573,13.338,33.773,12.963,37.672z   M35.443,37.618c-8.772,0-11.01,0-19.805,0c-0.399-5.769-3.428-8.932-9.348-9.193c0-2.426,0-4.838,0-7.25  c5.886-0.106,9.344-4.187,9.291-9.191c8.766,0,11.006,0,19.867,0c0.038,2.519,0.724,4.808,2.603,6.626  c1.854,1.791,4.117,2.482,6.682,2.511c0,2.449,0,4.862,0,7.342C39.695,28.187,35.361,32.067,35.443,37.618z M44.728,35.53  c-0.069,1.074-0.918,1.951-1.972,2.021c-1.566,0.1-3.142,0.025-4.714,0.025c-0.435-3.747,2.928-7.043,6.711-6.488  C44.753,32.563,44.826,34.051,44.728,35.53z M44.781,18.474c-3.567,0.764-7.155-2.7-6.729-6.542c1.521,0,2.985-0.034,4.449,0.012  c1.227,0.041,2.206,0.992,2.265,2.248C44.833,15.618,44.781,17.054,44.781,18.474z" id="svg_5" class="" fill-opacity="1"/><path fill="#ffffff" d="M27.904,9.514h3.988C30.564,9.514,29.236,9.514,27.904,9.514z" id="svg_6" class="" fill-opacity="1"/><path fill="#ffffff" d="M9.469,9.514h1.233C10.29,9.514,9.878,9.514,9.469,9.514z" id="svg_7" class="" fill-opacity="1"/><path fill="#ffffff" d="M47.226,34.197v0.253C47.226,34.367,47.226,34.281,47.226,34.197z" id="svg_8" class="" fill-opacity="1"/></g></svg>