<?xml version="1.0" encoding="utf-8"?>
<!-- Generator: Adobe Illustrator 16.0.0, SVG Export Plug-In . SVG Version: 6.00 Build 0)  -->
<!DOCTYPE svg PUBLIC "-//W3C//DTD SVG 1.1//EN" "http://www.w3.org/Graphics/SVG/1.1/DTD/svg11.dtd">
<svg version="1.1" id="Layer_1" xmlns="http://www.w3.org/2000/svg" xmlns:xlink="http://www.w3.org/1999/xlink" x="0px" y="0px"
	 width="51px" height="51px" viewBox="0 0 51 51" enable-background="new 0 0 51 51" xml:space="preserve">
<path fill="#414042" d="M21.568,19.851c-0.001,0.408,0.155,0.792,0.426,1.062l0.027,0.041l0.016,0.007
	c0.286,0.277,0.661,0.43,1.06,0.43c0.406,0,0.79-0.158,1.079-0.446l4.565-4.542l4.532,4.535c0.277,0.237,0.63,0.367,0.993,0.367
	c0.447,0,0.871-0.195,1.162-0.535c0.486-0.566,0.486-1.42-0.007-1.992l-4.554-4.527l4.524-4.527c0.289-0.286,0.449-0.668,0.45-1.076
	c0.002-0.409-0.156-0.794-0.444-1.084c-0.288-0.292-0.672-0.452-1.083-0.452c-0.406,0-0.789,0.158-1.077,0.445l-4.498,4.54
	l-4.575-4.547c-0.276-0.236-0.629-0.366-0.992-0.366c-0.448,0-0.871,0.195-1.16,0.535c-0.486,0.565-0.486,1.418,0.006,1.992
	l4.525,4.54l-4.524,4.527C21.731,19.062,21.57,19.443,21.568,19.851z"/>
<path fill="#414042" d="M3.66,9.153h4.717l5.174,24.411c0.231,1.052,0.925,1.786,1.696,1.786h25.204
	c0.859,0,1.642-0.781,1.642-1.639c0-0.855-0.778-1.634-1.657-1.634l0,0H16.575l-0.591-2.773H42.45
	c0.73-0.007,1.427-0.569,1.587-1.279l3.526-15.113c0.102-0.454-0.023-0.946-0.343-1.35c-0.317-0.4-0.781-0.642-1.243-0.647h-1.305
	l-3.518,15.115H15.302L11.308,7.173C11.15,6.448,10.447,5.88,9.704,5.88H3.66c-0.902,0-1.636,0.733-1.636,1.635
	C2.024,8.418,2.758,9.153,3.66,9.153z"/>
<path fill="#414042" d="M34.893,37.111c-2.849,0-5.166,2.318-5.166,5.167c0,2.847,2.317,5.163,5.166,5.163
	c2.848,0,5.164-2.316,5.164-5.163C40.056,39.429,37.74,37.111,34.893,37.111z M34.893,44.164c-1.06,0-1.891-0.83-1.891-1.891
	c0-1.06,0.831-1.89,1.891-1.89c1.059,0,1.888,0.83,1.888,1.89C36.78,43.334,35.951,44.164,34.893,44.164z"/>
<path fill="#414042" d="M20.788,37.111c-2.848,0-5.164,2.318-5.164,5.167c0,2.847,2.316,5.163,5.164,5.163
	c2.847,0,5.163-2.316,5.163-5.163C25.951,39.429,23.635,37.111,20.788,37.111z M20.788,44.164c-1.061,0-1.891-0.83-1.891-1.891
	c0-1.06,0.83-1.89,1.891-1.89c1.059,0,1.888,0.83,1.888,1.89C22.676,43.334,21.847,44.164,20.788,44.164z"/>
</svg>
