<?xml version="1.0" encoding="utf-8"?>
<!-- Generator: Adobe Illustrator 16.0.0, SVG Export Plug-In . SVG Version: 6.00 Build 0)  -->
<!DOCTYPE svg PUBLIC "-//W3C//DTD SVG 1.1//EN" "http://www.w3.org/Graphics/SVG/1.1/DTD/svg11.dtd">
<svg version="1.1" id="Layer_1" xmlns="http://www.w3.org/2000/svg" xmlns:xlink="http://www.w3.org/1999/xlink" x="0px" y="0px"
	 width="51px" height="51px" viewBox="0 0 51 51" enable-background="new 0 0 51 51" xml:space="preserve">
<path fill="none" d="M25.139,23.512c4.063,0,7.367-3.304,7.367-7.366c0-4.063-3.305-7.368-7.367-7.368s-7.368,3.306-7.368,7.368
	C17.771,20.208,21.077,23.512,25.139,23.512z"/>
<path fill="#00AEEF" d="M33.923,24.821l-0.871-0.178l0.604-0.651c1.98-2.136,3.071-4.922,3.071-7.846
	c0-6.389-5.199-11.587-11.589-11.587c-6.389,0-11.587,5.198-11.587,11.587c0,2.918,1.087,5.701,3.061,7.836l0.603,0.652
	l-0.871,0.177c-6.919,1.405-11.94,7.553-11.94,14.618v6.599h41.468v-6.599C45.874,32.384,40.847,26.241,33.923,24.821z
	 M16.771,16.146c0-4.614,3.754-8.368,8.368-8.368c4.613,0,8.367,3.754,8.367,8.368c0,4.613-3.754,8.366-8.367,8.366
	C20.525,24.512,16.771,20.759,16.771,16.146z M42.651,42.808H7.627v-3.379c0-6.449,5.244-11.695,11.689-11.695h11.641
	c6.448,0,11.694,5.246,11.694,11.695V42.808z"/>
</svg>
