<?xml version="1.0" encoding="utf-8"?>
<!-- Generator: Adobe Illustrator 16.0.0, SVG Export Plug-In . SVG Version: 6.00 Build 0)  -->
<!DOCTYPE svg PUBLIC "-//W3C//DTD SVG 1.1//EN" "http://www.w3.org/Graphics/SVG/1.1/DTD/svg11.dtd">
<svg version="1.1" id="Layer_1" xmlns="http://www.w3.org/2000/svg" xmlns:xlink="http://www.w3.org/1999/xlink" x="0px" y="0px"
	 width="51px" height="51px" viewBox="0 0 51 51" enable-background="new 0 0 51 51" xml:space="preserve">
<path fill="#662D94" d="M33.923,24.821l-0.871-0.178l0.604-0.651c1.98-2.136,3.07-4.922,3.07-7.846
	c0-6.389-5.199-11.587-11.588-11.587S13.551,9.757,13.551,16.146c0,2.918,1.087,5.701,3.061,7.836l0.603,0.652l-0.871,0.177
	c-6.919,1.405-11.94,7.553-11.94,14.619v6.598h41.468V39.43C45.874,32.384,40.848,26.241,33.923,24.821z M16.771,16.146
	c0-4.614,3.754-8.368,8.368-8.368c4.613,0,8.367,3.754,8.367,8.368c0,4.613-3.754,8.366-8.367,8.366
	C20.525,24.512,16.771,20.759,16.771,16.146z M42.65,42.809H7.627V39.43c0-6.449,5.244-11.695,11.689-11.695h11.641
	c6.447,0,11.693,5.246,11.693,11.695V42.809z"/>
</svg>
