<?xml version="1.0" encoding="utf-8"?>
<!-- Generator: Adobe Illustrator 16.0.0, SVG Export Plug-In . SVG Version: 6.00 Build 0)  -->
<!DOCTYPE svg PUBLIC "-//W3C//DTD SVG 1.1//EN" "http://www.w3.org/Graphics/SVG/1.1/DTD/svg11.dtd">
<svg version="1.1" id="Layer_1" xmlns="http://www.w3.org/2000/svg" xmlns:xlink="http://www.w3.org/1999/xlink" x="0px" y="0px"
	 width="51px" height="51px" viewBox="0 0 51 51" enable-background="new 0 0 51 51" xml:space="preserve">
<g>
	<path fill="#555556" d="M43.001,12.337H18.22c-2.148,0-13.381,9.519-13.381,13.871c0,4.588,10.943,13.87,13.381,13.87h24.781
		c2.301,0,4.173-1.872,4.173-4.174V16.51C47.174,14.209,45.302,12.337,43.001,12.337z M44.704,35.904
		c0,0.94-0.764,1.705-1.703,1.705l-24.698,0.005c-1.388-0.186-10.995-8.212-10.995-11.406c0-2.75,9.641-11.098,10.958-11.402h24.736
		c0.939,0,1.703,0.765,1.703,1.704V35.904z"/>
	<path fill="#555556" d="M35.727,30.517l-4.997-4.963l0.872-0.718c1.572-1.569,3.199-3.198,4.814-4.827
		c0.42-0.42,0.539-0.919,0.353-1.486c-0.165-0.494-0.532-0.79-1.123-0.887c-0.052-0.011-0.131-0.028-0.23-0.028
		c-0.33,0-0.649,0.179-1.065,0.598c-1.022,1.029-2.05,2.058-3.087,3.097l-2.44,2.439l-0.762-0.801
		c-1.549-1.562-3.11-3.125-4.681-4.689c-0.713-0.711-1.611-0.798-2.165-0.226c-0.273,0.283-0.798,1.056,0.241,2.102l5.546,5.552
		l-0.781,0.65c-1.594,1.6-3.202,3.209-4.818,4.822c-0.204,0.203-0.682,0.681-0.537,1.394c0.103,0.493,0.42,0.835,0.916,0.989
		c0.151,0.047,0.294,0.069,0.436,0.069c0.505,0,0.862-0.296,1.088-0.521l5.588-5.589l4.024,4.041
		c0.604,0.615,1.104,1.122,1.643,1.631c0.579,0.549,1.445,0.564,1.99,0.034c0.502-0.493,0.468-1.34-0.08-1.929
		C36.243,31.029,36.003,30.791,35.727,30.517z"/>
</g>
</svg>
