<?xml version="1.0" encoding="utf-8"?>
<!-- Generator: Adobe Illustrator 16.0.0, SVG Export Plug-In . SVG Version: 6.00 Build 0)  -->
<!DOCTYPE svg PUBLIC "-//W3C//DTD SVG 1.1//EN" "http://www.w3.org/Graphics/SVG/1.1/DTD/svg11.dtd">
<svg version="1.1" id="Layer_1" xmlns="http://www.w3.org/2000/svg" xmlns:xlink="http://www.w3.org/1999/xlink" x="0px" y="0px"
	 width="51px" height="51px" viewBox="0 0 51 51" enable-background="new 0 0 51 51" xml:space="preserve">
<g>
	<path fill="#FFFFFF" d="M18.254,39.475V16.073c0-0.725-0.588-1.314-1.311-1.314c-0.725,0-1.314,0.59-1.314,1.314V39.48
		c0,0.725,0.59,1.315,1.314,1.315C17.667,40.795,18.254,40.203,18.254,39.475z"/>
	<path fill="#FFFFFF" d="M40.401,13.897c-0.724,0-1.313,0.589-1.313,1.314v26.252c0,1.623-1.321,2.942-2.945,2.942H14.861
		c-1.623,0-2.944-1.32-2.944-2.942V15.211c0-0.725-0.589-1.314-1.314-1.314s-1.314,0.589-1.314,1.314v26.252
		c0,3.072,2.5,5.571,5.572,5.571h21.283c3.073,0,5.573-2.499,5.573-5.571V15.211C41.716,14.486,41.126,13.897,40.401,13.897z"/>
	<path fill="#FFFFFF" d="M26.771,39.475V16.073c0-0.725-0.591-1.314-1.317-1.314c-0.724,0-1.313,0.59-1.313,1.314V39.48
		c0,0.725,0.589,1.315,1.313,1.315C26.181,40.795,26.771,40.203,26.771,39.475z"/>
	<path fill="#FFFFFF" d="M35.285,39.475V16.073c0-0.725-0.59-1.314-1.314-1.314c-0.725,0-1.315,0.59-1.315,1.314V39.48
		c0,0.725,0.59,1.315,1.315,1.315C34.695,40.795,35.285,40.203,35.285,39.475z"/>
	<path fill="#FFFFFF" d="M45.72,9.138H33.186c-0.206-2.874-2.649-5.172-5.557-5.172h-4.254c-2.908,0-5.351,2.299-5.557,5.172H5.281
		c-0.725,0-1.315,0.589-1.315,1.314s0.59,1.314,1.315,1.314H45.72c0.725,0,1.315-0.59,1.315-1.314S46.445,9.138,45.72,9.138z
		 M20.455,9.138c0.194-1.447,1.43-2.545,2.919-2.545h4.254c1.489,0,2.723,1.099,2.917,2.545H20.455z"/>
</g>
</svg>
