<?xml version="1.0" encoding="utf-8"?>
<!-- Generator: Adobe Illustrator 16.0.0, SVG Export Plug-In . SVG Version: 6.00 Build 0)  -->
<!DOCTYPE svg PUBLIC "-//W3C//DTD SVG 1.1//EN" "http://www.w3.org/Graphics/SVG/1.1/DTD/svg11.dtd">
<svg version="1.1" id="Layer_1" xmlns="http://www.w3.org/2000/svg" xmlns:xlink="http://www.w3.org/1999/xlink" x="0px" y="0px"
	 width="51px" height="51px" viewBox="0 0 51 51" enable-background="new 0 0 51 51" xml:space="preserve">
<path fill="#414042" d="M39.68,31.59c-0.383,0.001-0.743,0.151-1.013,0.423c-0.27,0.272-0.418,0.633-0.416,1.013v0.552
	c0,1.038-0.844,1.882-1.88,1.882H21.26c-0.972,0-1.886,0.377-2.574,1.064l-4.638,4.637v-2.063c0-2.01-1.636-3.645-3.645-3.645H8.375
	c-1.037,0-1.881-0.844-1.881-1.881V15.341c0-1.038,0.844-1.881,1.881-1.881h16.946c0.79,0,1.435-0.644,1.435-1.434
	c0-0.791-0.645-1.435-1.435-1.435H8.375c-2.618,0-4.749,2.131-4.749,4.75v18.232c0,2.62,2.131,4.751,4.749,4.751h2.044
	c0.427,0,0.775,0.347,0.775,0.775v4.197c0.002,0.524,0.208,1.02,0.578,1.393c0.375,0.378,0.875,0.586,1.409,0.586h0.001
	c0.531,0,1.028-0.207,1.401-0.58l6.134-6.145c0.146-0.146,0.34-0.226,0.547-0.226h15.106c2.618,0,4.749-2.131,4.749-4.751v-0.556
	C41.118,32.23,40.472,31.59,39.68,31.59z"/>
<path fill="#414042" d="M46.432,15.295c-0.686-0.694-1.599-1.077-2.575-1.083h-5.312v-3.75c0-2.314-1.882-4.197-4.197-4.197h-1.105
	c-1.094,0-1.985,0.891-1.985,1.987v6.553c0,1.288-1.007,2.347-2.276,2.429c-0.31-1.091-1.304-1.863-2.478-1.863h-2.686
	c-1.421,0-2.577,1.156-2.577,2.579v11.602c0,1.421,1.156,2.58,2.577,2.58h2.675c0.91,0,1.748-0.493,2.208-1.25
	c0.494,0.237,1.041,0.365,1.587,0.365h10.875c2.299,0,4.265-1.643,4.673-3.909l1.591-8.84c0.036-0.202,0.055-0.411,0.057-0.618
	C47.49,16.907,47.117,15.989,46.432,15.295z M41.172,28.367H30.291c-0.212-0.002-0.402-0.081-0.551-0.229l-0.658-0.659v-7.373
	c2.802-0.138,5.039-2.461,5.039-5.294V9.135h0.223c0.731,0,1.327,0.596,1.327,1.327v4.619c0,1.095,0.891,1.986,1.988,1.986h6.181
	c0.23,0.001,0.447,0.104,0.636,0.318c0.126,0.173,0.175,0.385,0.138,0.597l-1.592,8.837C42.86,27.715,42.082,28.367,41.172,28.367z
	 M26.212,29.266h-2.104v-11.02h2.101L26.212,29.266z"/>
</svg>
