<?xml version="1.0" encoding="utf-8"?>
<!-- Generator: Adobe Illustrator 16.0.0, SVG Export Plug-In . SVG Version: 6.00 Build 0)  -->
<!DOCTYPE svg PUBLIC "-//W3C//DTD SVG 1.1//EN" "http://www.w3.org/Graphics/SVG/1.1/DTD/svg11.dtd">
<svg version="1.1" id="Layer_1" xmlns="http://www.w3.org/2000/svg" xmlns:xlink="http://www.w3.org/1999/xlink" x="0px" y="0px"
	 width="51px" height="51px" viewBox="0 0 51 51" enable-background="new 0 0 51 51" xml:space="preserve">
<g>
	<path fill-rule="evenodd" clip-rule="evenodd" fill="#FFFFFF" d="M30.021,33.273c-3.084,0-6.039,0-9.1,0c0,0.345,0,0.641,0,0.94
		c0,3.272,0.004,6.544,0,9.817c-0.002,1.473-0.461,1.931-1.926,1.933c-3.707,0.002-7.414,0.002-11.121-0.001
		c-1.533-0.002-1.945-0.424-1.945-1.977c0-7.797,0.01-15.596-0.014-23.394c-0.004-0.883,0.293-1.476,0.998-2.002
		c5.713-4.265,11.41-8.555,17.111-12.838c1.275-0.958,1.607-0.953,2.9,0.019c5.66,4.252,11.314,8.514,16.994,12.74
		c0.814,0.608,1.17,1.272,1.166,2.314c-0.039,7.695-0.021,15.391-0.021,23.086c0,1.594-0.457,2.052-2.059,2.053
		c-3.629,0.002-7.26,0-10.891,0c-1.713,0-2.094-0.375-2.094-2.059c0-3.246,0-6.494,0-9.741
		C30.021,33.888,30.021,33.611,30.021,33.273z M25.499,8.113c-0.225,0.156-0.396,0.266-0.559,0.389
		c-5.195,3.894-10.387,7.799-15.596,11.673c-0.504,0.376-0.717,0.748-0.715,1.384c0.023,6.907,0.016,13.811,0.016,20.717
		c0,0.297,0,0.595,0,0.922c3.236,0,6.367,0,9.559,0c0-0.324,0.002-0.599,0.002-0.877c0-3.324-0.004-6.649,0-9.974
		c0.002-1.378,0.459-1.836,1.844-1.836c3.58-0.004,7.16-0.002,10.74-0.002c1.535,0,1.945,0.413,1.947,1.967
		c0.002,3.274,0,6.549,0.002,9.823c0,0.294,0.027,0.59,0.043,0.892c3.209,0,6.34,0,9.516,0c0-0.358,0-0.664,0-0.967
		c0-6.726-0.023-13.452,0.025-20.18c0.008-0.979-0.289-1.553-1.07-2.13C35.991,16.021,30.772,12.073,25.499,8.113z"/>
</g>
</svg>
