<?xml version="1.0" encoding="utf-8"?>
<!-- Generator: Adobe Illustrator 16.0.0, SVG Export Plug-In . SVG Version: 6.00 Build 0)  -->
<!DOCTYPE svg PUBLIC "-//W3C//DTD SVG 1.1//EN" "http://www.w3.org/Graphics/SVG/1.1/DTD/svg11.dtd">
<svg version="1.1" id="Layer_1" xmlns="http://www.w3.org/2000/svg" xmlns:xlink="http://www.w3.org/1999/xlink" x="0px" y="0px"
	 width="51px" height="51px" viewBox="0 0 51 51" enable-background="new 0 0 51 51" xml:space="preserve">
<g>
	<path fill="#662D94" d="M30.021,33.273c-3.084,0-6.04,0-9.101,0c0,0.345,0,0.641,0,0.939c0,3.271,0.004,6.544,0,9.816
		c-0.002,1.474-0.461,1.932-1.926,1.934c-3.707,0.002-7.414,0.002-11.121-0.001c-1.533-0.002-1.945-0.424-1.945-1.978
		c0-7.797,0.01-15.596-0.014-23.394c-0.004-0.883,0.293-1.476,0.998-2.002c5.713-4.265,11.41-8.555,17.111-12.838
		c1.275-0.958,1.607-0.953,2.9,0.019c5.66,4.252,11.314,8.514,16.994,12.74c0.814,0.608,1.17,1.272,1.166,2.314
		c-0.039,7.695-0.021,15.391-0.021,23.086c0,1.594-0.457,2.052-2.059,2.053c-3.629,0.002-7.26,0-10.891,0
		c-1.713,0-2.094-0.375-2.094-2.059c0-3.246,0-6.494,0-9.741C30.021,33.889,30.021,33.611,30.021,33.273z M25.499,8.113
		c-0.225,0.156-0.396,0.266-0.559,0.389c-5.195,3.894-10.387,7.799-15.596,11.673c-0.504,0.376-0.717,0.748-0.715,1.384
		c0.023,6.907,0.016,13.811,0.016,20.716c0,0.298,0,0.596,0,0.923c3.236,0,6.367,0,9.559,0c0-0.324,0.002-0.599,0.002-0.878
		c0-3.323-0.004-6.648,0-9.973c0.002-1.379,0.459-1.836,1.844-1.836c3.58-0.005,7.16-0.003,10.74-0.003
		c1.535,0,1.944,0.413,1.946,1.968c0.002,3.273,0,6.549,0.002,9.822c0,0.294,0.027,0.59,0.044,0.893c3.209,0,6.34,0,9.516,0
		c0-0.358,0-0.664,0-0.967c0-6.727-0.022-13.453,0.025-20.181c0.008-0.979-0.289-1.553-1.07-2.13
		C35.991,16.021,30.771,12.073,25.499,8.113z"/>
</g>
</svg>
