<?xml version="1.0" encoding="utf-8"?>
<!-- Generator: Adobe Illustrator 16.0.0, SVG Export Plug-In . SVG Version: 6.00 Build 0)  -->
<!DOCTYPE svg PUBLIC "-//W3C//DTD SVG 1.1//EN" "http://www.w3.org/Graphics/SVG/1.1/DTD/svg11.dtd">
<svg version="1.1" id="Layer_1" xmlns="http://www.w3.org/2000/svg" xmlns:xlink="http://www.w3.org/1999/xlink" x="0px" y="0px"
	 width="51px" height="51px" viewBox="0 0 51 51" enable-background="new 0 0 51 51" xml:space="preserve">
<path fill="#662D94" d="M42.458,16.873L28.348,6.291c-1.671-1.255-3.971-1.255-5.644,0L8.594,16.873
	c-1.183,0.891-1.88,2.281-1.88,3.763v21.167c0,2.596,2.105,4.701,4.704,4.701h28.219c2.598,0,4.704-2.105,4.704-4.701V20.636
	C44.341,19.154,43.643,17.764,42.458,16.873z M24.351,32.395h-8.23v-9.409h8.23V32.395z M16.12,44.152v-9.406h8.23v9.406H16.12z
	 M26.702,44.152v-9.406h8.231v9.406H26.702z M41.988,41.802c0,1.298-1.053,2.347-2.352,2.351h-2.352v-9.406
	c0-1.298-1.053-2.352-2.352-2.352h-8.231v-9.409c0-1.298-1.053-2.351-2.352-2.351h-8.23c-1.298,0-2.352,1.053-2.352,2.351v21.167
	h-2.351c-1.299-0.002-2.35-1.053-2.352-2.351V20.636c0.001-0.738,0.35-1.436,0.941-1.881l14.11-10.583
	c0.836-0.627,1.987-0.627,2.821,0l14.109,10.583c0.592,0.446,0.939,1.143,0.941,1.881V41.802L41.988,41.802z"/>
</svg>
