<?xml version="1.0" encoding="utf-8"?>
<!-- Generator: Adobe Illustrator 16.0.0, SVG Export Plug-In . SVG Version: 6.00 Build 0)  -->
<!DOCTYPE svg PUBLIC "-//W3C//DTD SVG 1.1//EN" "http://www.w3.org/Graphics/SVG/1.1/DTD/svg11.dtd">
<svg version="1.1" id="Layer_1" xmlns="http://www.w3.org/2000/svg" xmlns:xlink="http://www.w3.org/1999/xlink" x="0px" y="0px"
	 width="51px" height="51px" viewBox="0 0 51 51" enable-background="new 0 0 51 51" xml:space="preserve">
<path fill="#662D94" d="M40.829,6.837H26.158c-2.667,0-4.838,2.15-4.838,4.793v3.892c0,0.852,0.694,1.544,1.547,1.544
	c0.852,0,1.545-0.692,1.545-1.544V11.63c0-0.955,0.767-1.703,1.746-1.703h14.671c0.954,0,1.7,0.748,1.7,1.703V39.9
	c0,0.953-0.746,1.701-1.7,1.701H26.158c-0.979,0-1.746-0.748-1.746-1.701v-3.816c0-0.852-0.693-1.543-1.545-1.543
	c-0.853,0-1.547,0.691-1.547,1.543V39.9c0,2.642,2.17,4.791,4.838,4.791h14.671c2.642,0,4.791-2.149,4.791-4.791V11.63
	C45.62,8.988,43.471,6.837,40.829,6.837z"/>
<path fill="#662D94" d="M9.531,27.311h24.781c0.853,0,1.545-0.693,1.545-1.546c0-0.852-0.692-1.545-1.545-1.545H9.184l4.955-5.717
	c0.274-0.312,0.408-0.709,0.379-1.122c-0.029-0.41-0.218-0.786-0.531-1.056c-0.284-0.247-0.644-0.382-1.015-0.382
	c-0.445,0-0.87,0.195-1.166,0.536l-7.03,8.103c-0.357,0.336-0.542,0.754-0.542,1.183c0,0.47,0.22,0.921,0.588,1.21l7.063,7.059
	c0.569,0.568,1.564,0.597,2.205-0.01c0.281-0.28,0.441-0.668,0.441-1.082c0-0.412-0.16-0.801-0.451-1.09L9.531,27.311z"/>
</svg>
