<?xml version="1.0" encoding="utf-8"?>
<!-- Generator: Adobe Illustrator 16.0.0, SVG Export Plug-In . SVG Version: 6.00 Build 0)  -->
<!DOCTYPE svg PUBLIC "-//W3C//DTD SVG 1.1//EN" "http://www.w3.org/Graphics/SVG/1.1/DTD/svg11.dtd">
<svg version="1.1" id="Layer_1" xmlns="http://www.w3.org/2000/svg" xmlns:xlink="http://www.w3.org/1999/xlink" x="0px" y="0px"
	 width="51px" height="51px" viewBox="0 0 51 51" enable-background="new 0 0 51 51" xml:space="preserve">
<path fill="#662D94" d="M28.363,28.008h-6.432c-0.832,0-1.509,0.678-1.509,1.51v15.276c0,0.833,0.677,1.511,1.509,1.511h6.432
	c0.832,0,1.51-0.679,1.51-1.511V29.518C29.874,28.686,29.195,28.008,28.363,28.008z M27.109,44.702h-3.924v-14.89h3.924V44.702z"/>
<path fill="#662D94" d="M15.3,32.232H8.868c-0.833,0-1.511,0.677-1.511,1.509v11.056c0,0.832,0.678,1.508,1.511,1.508H15.3
	c0.832,0,1.509-0.677,1.509-1.508V33.741C16.81,32.909,16.132,32.232,15.3,32.232z M14.066,44.096H10.1v-9.654h3.967L14.066,44.096
	L14.066,44.096z"/>
<path fill="#662D94" d="M41.428,24.793h-6.431c-0.832,0-1.509,0.678-1.509,1.512v18.49c0,0.833,0.677,1.51,1.509,1.51h6.431
	c0.834,0,1.512-0.678,1.512-1.51v-18.49C42.939,25.471,42.262,24.793,41.428,24.793z M40.109,44.635h-3.791V26.664h3.791V44.635z"/>
<path fill="#662D94" d="M44.247,6.723L33.863,5.975c-0.786,0-1.445,0.611-1.502,1.391c-0.03,0.405,0.1,0.796,0.365,1.102
	c0.26,0.302,0.623,0.484,1.021,0.513l6.364,0.454l-12.473,9.706L17.622,11.24c-0.267-0.213-0.587-0.325-0.929-0.325
	c-0.392,0-0.764,0.148-1.049,0.417L5.133,21.418c-0.297,0.283-0.465,0.66-0.472,1.062c-0.007,0.397,0.144,0.775,0.425,1.063
	c0.566,0.595,1.547,0.616,2.127,0.051l9.603-9.207l9.911,7.805c0.531,0.415,1.328,0.422,1.847,0.003l13.823-10.749l-0.47,6.132
	c-0.059,0.828,0.563,1.553,1.388,1.613l0.125-0.001c0.789,0,1.451-0.609,1.511-1.387l0.743-9.547
	C45.723,7.494,45.063,6.782,44.247,6.723z"/>
</svg>
