<?xml version="1.0" encoding="utf-8"?>
<!-- Generator: Adobe Illustrator 16.0.0, SVG Export Plug-In . SVG Version: 6.00 Build 0)  -->
<!DOCTYPE svg PUBLIC "-//W3C//DTD SVG 1.1//EN" "http://www.w3.org/Graphics/SVG/1.1/DTD/svg11.dtd">
<svg version="1.1" id="Layer_1" xmlns="http://www.w3.org/2000/svg" xmlns:xlink="http://www.w3.org/1999/xlink" x="0px" y="0px"
	 width="51px" height="51px" viewBox="0 0 51 51" enable-background="new 0 0 51 51" xml:space="preserve">
<path fill="#FFFFFF" d="M20.347,33.556c-3.173,0-5.851,2.681-5.851,5.854c0,3.171,2.678,5.852,5.851,5.852
	c3.124,0,5.75-2.618,5.853-5.852C26.2,36.237,23.52,33.556,20.347,33.556z M20.347,42.456c-1.679,0-3.045-1.367-3.045-3.046
	c0-1.68,1.366-3.048,3.045-3.048c1.6,0,2.966,1.38,3.047,3.048C23.394,41.089,22.028,42.456,20.347,42.456z"/>
<path fill="#FFFFFF" d="M34.962,33.556c-3.175,0-5.854,2.681-5.854,5.854c0,3.171,2.68,5.852,5.854,5.852
	c3.171,0,5.852-2.681,5.852-5.852C40.813,36.237,38.133,33.556,34.962,33.556z M34.962,42.456c-1.681,0-3.047-1.367-3.047-3.046
	c0-1.68,1.366-3.048,3.047-3.048c1.598,0,2.965,1.38,3.044,3.048C38.006,41.089,36.642,42.456,34.962,42.456z"/>
<path fill="#FFFFFF" d="M47.285,14.423l-0.065-0.078c-0.157-0.159-0.404-0.495-0.935-0.46c-1.494,0.101-2.246,2.835-2.246,2.835
	l-5.21,13.024H16.49l-5.485-14.9c-0.433-1.473-2.126-3.961-5.729-3.961c-0.633,0-1.304,0.078-1.983,0.23
	c-0.35,0.07-0.652,0.271-0.853,0.571c-0.204,0.309-0.28,0.696-0.205,1.062c0.142,0.719,0.825,1.221,1.641,1.058
	c0.463-0.1,0.904-0.149,1.308-0.149c2.516,0,3.03,1.938,3.066,2.072l5.885,15.872c0.142,0.569,0.683,0.953,1.342,0.953h24.262
	c0.609,0,1.08-0.349,1.237-0.914l6.462-15.926C47.595,15.243,47.542,14.809,47.285,14.423z"/>
<path fill="#FFFFFF" d="M27.735,24.49c0.227,0.229,0.502,0.319,0.822,0.319c0.319,0,0.595-0.09,0.824-0.319l6.858-6.859
	c0.228-0.227,0.32-0.502,0.32-0.821c0-0.32-0.092-0.594-0.32-0.824c-0.458-0.457-1.189-0.457-1.602,0l-0.822,0.824l-4.114,4.115
	V16.81V7.666c0-0.64-0.503-1.144-1.144-1.144c-0.64,0-1.142,0.503-1.142,1.144v9.144v4.115l-4.116-4.115l-0.822-0.824
	c-0.458-0.457-1.19-0.457-1.6,0c-0.229,0.23-0.32,0.504-0.32,0.824c0,0.319,0.091,0.595,0.32,0.821L27.735,24.49z"/>
</svg>
