<?xml version="1.0" encoding="utf-8"?>
<!-- Generator: Adobe Illustrator 16.0.0, SVG Export Plug-In . SVG Version: 6.00 Build 0)  -->
<!DOCTYPE svg PUBLIC "-//W3C//DTD SVG 1.1//EN" "http://www.w3.org/Graphics/SVG/1.1/DTD/svg11.dtd">
<svg version="1.1" id="Layer_1" xmlns="http://www.w3.org/2000/svg" xmlns:xlink="http://www.w3.org/1999/xlink" x="0px" y="0px"
	 width="51px" height="51px" viewBox="0 0 51 51" enable-background="new 0 0 51 51" xml:space="preserve">
<g>
	<path fill="#FFFFFF" d="M43.585,19.51h-3.186c-0.122-0.32-0.255-0.64-0.4-0.957l2.245-2.244c0.585-0.577,0.913-1.348,0.918-2.169
		c0.007-0.822-0.308-1.599-0.913-2.212l-3.691-3.691c-1.132-1.155-3.23-1.176-4.38-0.007l-2.25,2.25
		c-0.315-0.143-0.633-0.277-0.958-0.399V6.895c0-1.704-1.387-3.091-3.092-3.091h-5.236c-1.705,0-3.091,1.387-3.091,3.091v3.187
		c-0.325,0.123-0.645,0.256-0.958,0.399l-2.245-2.245c-1.134-1.153-3.232-1.173-4.38-0.005l-3.692,3.693
		c-0.587,0.578-0.911,1.349-0.917,2.172c-0.008,0.822,0.31,1.598,0.913,2.208l2.25,2.25c-0.142,0.314-0.277,0.634-0.401,0.957H6.936
		c-1.704,0-3.091,1.387-3.091,3.094v5.235c0,1.705,1.387,3.092,3.091,3.092h3.186c0.122,0.321,0.255,0.641,0.398,0.957l-2.243,2.246
		c-0.587,0.576-0.911,1.349-0.917,2.171c-0.008,0.822,0.31,1.599,0.913,2.209l3.693,3.691c1.135,1.16,3.23,1.176,4.378,0.009
		l2.252-2.251c0.313,0.143,0.631,0.276,0.954,0.398v3.186c0,1.704,1.387,3.091,3.091,3.091h5.236c1.705,0,3.092-1.387,3.092-3.091
		V40.36c0.322-0.122,0.643-0.256,0.958-0.4l2.245,2.245c1.134,1.155,3.227,1.175,4.38,0.006l3.692-3.691
		c0.587-0.578,0.913-1.348,0.92-2.17c0.005-0.822-0.308-1.598-0.913-2.212l-2.25-2.25c0.143-0.314,0.276-0.634,0.398-0.957h3.186
		c1.704,0,3.091-1.387,3.091-3.092v-5.235C46.677,20.897,45.29,19.51,43.585,19.51z M38.155,29.18
		c-0.252,0.809-0.582,1.597-0.976,2.341c-0.282,0.526-0.187,1.164,0.235,1.586l2.941,2.939c0.152,0.148,0.156,0.394-0.005,0.558
		l-3.71,3.71c-0.07,0.073-0.17,0.116-0.269,0.118c-0.103,0-0.206-0.044-0.283-0.124l-2.93-2.932
		c-0.409-0.409-1.074-0.509-1.585-0.237c-0.75,0.398-1.541,0.728-2.353,0.98c-0.564,0.177-0.944,0.694-0.942,1.285v4.142
		c0,0.219-0.18,0.398-0.398,0.398h-5.236c-0.219,0-0.398-0.179-0.398-0.398v-4.146c0-0.593-0.378-1.108-0.944-1.287
		c-0.804-0.25-1.593-0.578-2.341-0.976c-0.195-0.103-0.413-0.157-0.632-0.157c-0.361,0-0.7,0.141-0.954,0.395l-2.939,2.941
		c-0.15,0.155-0.402,0.15-0.552-0.005l-3.715-3.712c-0.154-0.148-0.156-0.393,0.003-0.557l2.932-2.932
		c0.422-0.421,0.517-1.058,0.237-1.584c-0.395-0.747-0.723-1.535-0.973-2.347c-0.178-0.563-0.694-0.941-1.285-0.941H6.936
		c-0.221,0-0.398-0.179-0.398-0.398v-5.235c0-0.221,0.177-0.399,0.398-0.399h4.146c0.593,0,1.107-0.379,1.285-0.943
		c0.254-0.81,0.582-1.598,0.978-2.343c0.278-0.526,0.184-1.163-0.239-1.583l-2.941-2.943c-0.072-0.072-0.115-0.167-0.115-0.271
		c-0.002-0.104,0.037-0.2,0.12-0.285l3.708-3.708c0.141-0.145,0.398-0.152,0.554,0.007l2.932,2.933
		c0.409,0.409,1.07,0.51,1.585,0.237c0.75-0.399,1.541-0.727,2.353-0.978c0.563-0.177,0.942-0.693,0.942-1.285V6.895
		c0-0.219,0.18-0.398,0.398-0.398h5.236c0.219,0,0.398,0.179,0.398,0.398v4.146c-0.002,0.593,0.378,1.11,0.944,1.287
		c0.81,0.251,1.599,0.58,2.343,0.976c0.513,0.272,1.176,0.172,1.585-0.237l2.941-2.941c0.146-0.15,0.4-0.15,0.55,0.005l3.708,3.709
		c0.074,0.071,0.117,0.167,0.117,0.271c0.001,0.102-0.037,0.2-0.121,0.286l-2.934,2.932c-0.42,0.422-0.515,1.058-0.235,1.583
		c0.398,0.749,0.728,1.54,0.982,2.351c0.177,0.563,0.694,0.942,1.285,0.942h4.142c0.219,0,0.396,0.179,0.396,0.399v5.235
		c0,0.219-0.177,0.398-0.396,0.398h-4.147C38.847,28.237,38.333,28.616,38.155,29.18z"/>
	<path fill="#FFFFFF" d="M28.751,16.096c0.743,0,1.346-0.604,1.346-1.347c0-0.743-0.604-1.346-1.346-1.346H25.26
		c-6.509,0.007-11.81,5.309-11.817,11.817c0,0.742,0.604,1.347,1.346,1.347c0.743,0,1.347-0.604,1.347-1.346
		c0.006-5.026,4.099-9.119,9.125-9.125H28.751z"/>
	<path fill="#FFFFFF" d="M35.732,23.874c-0.743,0-1.346,0.604-1.346,1.347c-0.006,5.025-4.099,9.118-9.126,9.125h-3.49
		c-0.742,0-1.346,0.603-1.346,1.347c0,0.742,0.604,1.347,1.346,1.347h3.492c6.509-0.008,11.81-5.309,11.817-11.818
		C37.078,24.478,36.475,23.874,35.732,23.874z"/>
	<path fill="#FFFFFF" d="M15.662,27.365h-0.873c-0.742,0-1.346,0.604-1.346,1.347c0,0.742,0.604,1.346,1.346,1.346h0.873
		c0.743,0,1.346-0.604,1.346-1.346C17.008,27.968,16.404,27.365,15.662,27.365z"/>
	<path fill="#FFFFFF" d="M35.732,20.384H34.86c-0.743,0-1.349,0.604-1.349,1.347c0,0.742,0.605,1.347,1.349,1.347h0.872
		c0.743,0,1.346-0.604,1.346-1.347C37.078,20.987,36.475,20.384,35.732,20.384z"/>
</g>
<g>
	<path fill="#FFFFFF" d="M19.54,21.788h3.082c0.858,0,1.522,0.241,1.965,0.685c0.376,0.375,0.578,0.905,0.578,1.541v0.02
		c0,1.088-0.587,1.772-1.444,2.091l1.648,2.408h-1.735l-1.445-2.158H22.17h-1.146v2.158H19.54V21.788z M22.525,25.064
		c0.723,0,1.138-0.386,1.138-0.954v-0.02c0-0.635-0.443-0.963-1.167-0.963h-1.473v1.937H22.525z"/>
	<path fill="#FFFFFF" d="M25.576,27.548l0.878-1.049c0.608,0.502,1.243,0.819,2.013,0.819c0.608,0,0.973-0.241,0.973-0.637v-0.019
		c0-0.376-0.231-0.568-1.357-0.857c-1.36-0.347-2.236-0.722-2.236-2.062v-0.019c0-1.224,0.983-2.034,2.362-2.034
		c0.981,0,1.82,0.31,2.504,0.859l-0.771,1.117c-0.598-0.415-1.186-0.665-1.754-0.665s-0.867,0.261-0.867,0.588v0.02
		c0,0.443,0.289,0.587,1.454,0.886c1.369,0.357,2.14,0.848,2.14,2.024v0.018c0,1.341-1.021,2.092-2.477,2.092
		C27.417,28.629,26.388,28.271,25.576,27.548z"/>
</g>
</svg>
