<?xml version="1.0" encoding="utf-8"?>
<!-- Generator: Adobe Illustrator 16.0.0, SVG Export Plug-In . SVG Version: 6.00 Build 0)  -->
<!DOCTYPE svg PUBLIC "-//W3C//DTD SVG 1.1//EN" "http://www.w3.org/Graphics/SVG/1.1/DTD/svg11.dtd">
<svg version="1.1" id="Layer_1" xmlns="http://www.w3.org/2000/svg" xmlns:xlink="http://www.w3.org/1999/xlink" x="0px" y="0px"
	 width="51px" height="51px" viewBox="0 0 51 51" enable-background="new 0 0 51 51" xml:space="preserve">
<g>
	<title>Layer 1</title>
	<path id="svg_1" fill="#F0AA2E" d="M47.214,43.031c0.679,0,1.229-0.553,1.229-1.233V27.382c0-0.68-0.551-1.229-1.229-1.229h-8.099
		c-0.68,0-1.233,0.55-1.233,1.229v0.078h-1.391c-0.644,0-1.173,0.495-1.226,1.125c-0.817-0.092-1.584-0.14-2.324-0.14
		c-3.262,0-5.854,0.904-9.777,2.271c-1.423,0.498-3.193,1.114-5.369,1.814l-0.217,0.08c-1.861,0.83-2.277,2.649-1.873,4.005
		c0.375,1.257,1.542,2.524,3.301,2.524c0.222,0,0.447-0.021,0.674-0.063c1.247-0.233,9.036-1.292,9.112-1.303
		c0.328-0.043,0.615-0.213,0.815-0.474c0.201-0.262,0.285-0.586,0.24-0.909c-0.089-0.664-0.697-1.149-1.386-1.057l-0.175,0.021
		c-2.931,0.399-8.005,1.1-9.058,1.299c-0.65,0.119-1.044-0.348-1.162-0.748c-0.146-0.482,0.034-0.836,0.484-1.034
		c2.123-0.679,3.87-1.288,5.422-1.828c4.792-1.67,7.196-2.493,11.286-1.981v9.74c-2.667,0.571-11.379,2.381-14.497,2.381
		c-2.537,0-10.5-5.658-14.873-9.183c-0.372-0.374-1.178-1.323-0.745-2.073c0.247-0.427,0.71-0.693,1.206-0.693
		c0.242,0,0.485,0.064,0.755,0.22c0.029,0.014,3.876,1.912,7.03,3.239c0.608,0.255,1.356-0.051,1.611-0.659
		c0.263-0.624-0.029-1.349-0.657-1.614c-2.683-1.126-5.912-2.695-6.839-3.148c-0.866-0.49-1.925-0.621-2.864-0.377l-0.297,0.09
		c-0.862,0.3-1.556,0.934-2.077,1.714c-0.456,0.682-0.456,1.789-0.456,1.789c0.029,1.096,0.581,2.241,1.611,3.274l0.097,0.084
		c0.026,0.025,3.024,2.44,6.466,4.82c4.907,3.398,8.096,4.98,10.033,4.98c3.228,0,11.239-1.631,14.52-2.33
		c0.115,0.56,0.611,0.986,1.208,0.986h1.391v0.111c0,0.682,0.554,1.232,1.233,1.232h8.099c0.679,0,1.229-0.551,1.229-1.232
		c0-0.678-0.551-1.23-1.229-1.23h-6.866V28.614h5.635v13.183C45.982,42.479,46.535,43.031,47.214,43.031z M37.879,29.927v11.917
		h-0.16V29.927H37.879z"/>
	<g id="svg_2">
		<path id="svg_3" fill="#F0AA2E" d="M18.724,27.324c-6.058,0-10.988-4.929-10.988-10.987S12.667,5.35,18.724,5.35
			c6.06,0,10.989,4.929,10.989,10.987S24.784,27.324,18.724,27.324z M18.724,7.762c-4.727,0-8.573,3.847-8.573,8.575
			c0,4.729,3.846,8.576,8.573,8.576c4.729,0,8.576-3.847,8.576-8.576S23.453,7.762,18.724,7.762z"/>
		<path id="svg_4" fill="#F0AA2E" d="M18.724,20.894c-2.511,0-4.553-2.045-4.553-4.557c0-2.513,2.042-4.556,4.553-4.556
			c2.513,0,4.556,2.043,4.556,4.556C23.28,18.849,21.237,20.894,18.724,20.894z"/>
	</g>
</g>
</svg>
